<?xml version="1.0" standalone="no"?><!DOCTYPE svg PUBLIC "-//W3C//DTD SVG 1.1//EN" "http://www.w3.org/Graphics/SVG/1.1/DTD/svg11.dtd" ><svg xmlns="http://www.w3.org/2000/svg"><metadata>Generated by Glyphter</metadata><defs><font id="albi21thep" horiz-adv-x="0"><font-face units-per-em="1024" ascent="1024" descent="0" font-family="albi21thep" font-weight="normal" /><missing-glyph horiz-adv-x="0" /><glyph unicode="&#x0041;" d="M744.083,819.395C743.937,823.643,743.693,827.499,743.497,831.503C743.497,831.503,743.497,953.357,743.497,953.357C743.448,992.316,709.03,1023.854,666.557,1023.854C664.067,1023.854,661.724,1023.414,659.332,1023.17C656.402,1023.463,653.522,1024,650.544,1024C650.544,1024,358.991,1024,358.991,1024C358.014,1024,357.087,1023.756,356.11,1023.756C356.11,1023.756,282.587,1023.756,282.587,1023.756C282.587,1023.756,282.587,957.947,282.587,957.947C282.49,956.433,282.099,955.017,282.099,953.504C282.099,953.504,282.099,953.504,282.099,953.504C282.099,951.99,282.49,950.575,282.587,949.061C282.587,949.061,282.587,868.508,282.587,868.508C282.587,868.508,583.953,868.508,583.953,868.508C586.15,868.508,587.957,868.362,589.665,868.215C589.665,868.215,589.665,788.199,589.665,788.199C589.665,786.93,590.007,785.758,590.056,784.538C589.812,783.073,589.665,781.56,589.665,780.095C589.665,780.095,589.665,717.752,589.665,717.752C519.218,715.994,557.737,716.727,512.09,716.727C512.09,716.727,434.515,716.727,434.515,716.727C392.237,716.727,355.915,696.662,325.549,656.532C295.183,616.353,280,568.314,280,512.366C280,512.366,280,205.337,280,205.337C280,148.706,295.232,100.374,325.696,60.195C356.159,20.065,392.384,0,434.467,0C434.467,0,744.083,0,744.083,0C744.083,0,744.083,819.395,744.083,819.395C744.083,819.395,744.083,819.395,744.083,819.395M589.617,154.222C589.617,154.222,512.042,154.222,512.042,154.222C490.756,154.222,472.497,164.279,457.314,184.442C442.082,204.605,434.467,228.722,434.467,256.891C434.467,256.891,434.467,460.812,434.467,460.812C434.467,488.298,442.034,512.122,457.119,532.285C472.204,552.447,490.512,562.504,512.042,562.504C533.571,562.504,551.879,552.447,566.964,532.285C582.049,512.122,589.617,488.298,589.617,460.812C589.617,460.812,589.617,154.271,589.617,154.271C589.617,154.271,589.617,154.222,589.617,154.222" class="icon-a"/><glyph unicode="&#x0042;" d="M280,1024C280,1024,280,0,280,0C280,0,589.927,0,589.927,0C632.003,0,668.313,20.085,698.807,60.255C729.301,100.426,744.548,148.855,744.548,205.543C744.548,205.543,744.548,512.88,744.548,512.88C744.548,568.883,729.35,617.019,699.002,657.19C668.655,697.36,632.296,717.445,589.927,717.445C589.927,717.445,512.274,717.445,512.274,717.445C466.533,717.445,505.139,716.761,434.621,718.471C434.621,718.471,434.621,780.877,434.621,780.877C434.621,782.343,434.426,783.858,434.23,785.324C434.279,786.546,434.621,787.767,434.621,788.989C434.621,788.989,434.621,1024,434.621,1024C434.621,1024,280,1024,280,1024C280,1024,280,1024,280,1024M434.621,461.274C434.621,488.787,442.196,512.635,457.297,532.818C472.397,553.001,490.723,563.068,512.274,563.068C533.825,563.068,552.151,553.001,567.252,532.818C582.352,512.635,589.927,488.787,589.927,461.274C589.927,461.274,589.927,257.148,589.927,257.148C589.927,229,582.303,204.81,567.056,184.627C551.809,164.444,533.532,154.377,512.274,154.377C512.274,154.377,434.621,154.377,434.621,154.377C434.621,154.377,434.621,461.225,434.621,461.225C434.621,461.225,434.621,461.274,434.621,461.274" class="icon-b"/><glyph unicode="&#x0043;" d="M325.559,963.874C295.203,923.692,280,875.542,280,819.523C280,819.523,280,205.602,280,205.602C280,148.897,295.251,100.503,325.754,60.273C356.257,20.091,392.577,0,434.666,0C434.666,0,744.681,0,744.681,0C744.681,0,744.681,154.421,744.681,154.421C744.681,154.421,512.341,154.421,512.341,154.421C491.028,154.421,472.745,164.491,457.543,184.68C442.291,204.868,434.666,229.017,434.666,257.222C434.666,257.222,434.666,767.853,434.666,767.853C434.666,795.374,442.243,819.229,457.347,839.418C472.452,859.607,490.783,869.677,512.341,869.677C512.341,869.677,744.681,869.677,744.681,869.677C744.681,869.677,744.681,1024,744.681,1024C744.681,1024,432.319,1024,432.319,1024C390.964,1023.267,355.378,1003.323,325.559,963.874C325.559,963.874,325.559,963.874,325.559,963.874" class="icon-c"/><glyph unicode="&#x0044;" d="M589.927,1024C589.927,1024,589.927,789.087,589.927,789.087C589.927,787.816,590.269,786.644,590.318,785.422C590.073,783.956,589.927,782.441,589.927,780.975C589.927,780.975,589.927,718.569,589.927,718.569C519.409,716.81,557.967,717.543,512.274,717.543C512.274,717.543,434.621,717.543,434.621,717.543C392.301,717.543,355.942,697.458,325.546,657.287C295.198,617.019,280,568.932,280,512.88C280,512.88,280,205.543,280,205.543C280,148.855,295.247,100.475,325.741,60.255C356.236,20.085,392.496,0,434.621,0C434.621,0,744.548,0,744.548,0C744.548,0,744.548,1024,744.548,1024C744.548,1024,589.927,1024,589.927,1024C589.927,1024,589.927,1024,589.927,1024M589.927,154.377C589.927,154.377,512.274,154.377,512.274,154.377C490.967,154.377,472.69,164.444,457.492,184.627C442.245,204.81,434.621,228.951,434.621,257.148C434.621,257.148,434.621,461.274,434.621,461.274C434.621,488.787,442.196,512.635,457.297,532.818C472.397,553.001,490.723,563.068,512.274,563.068C533.825,563.068,552.151,553.001,567.252,532.818C582.352,512.635,589.927,488.787,589.927,461.274C589.927,461.274,589.927,154.426,589.927,154.426C589.927,154.426,589.927,154.377,589.927,154.377" class="icon-d"/><glyph unicode="&#x0045;" d="M457.119,839.656C472.204,859.818,490.512,869.875,512.042,869.875C512.042,869.875,744.083,869.875,744.083,869.875C744.083,869.875,744.083,1024,744.083,1024C744.083,1024,432.123,1024,432.123,1024C390.821,1023.268,355.28,1003.3,325.5,963.951C295.183,923.772,280,875.734,280,819.786C280,819.786,280,646.133,280,646.133C280,594.628,292.742,550.055,317.933,512.171C292.742,474.335,280,429.958,280,378.941C280,378.941,280,205.288,280,205.288C280,148.657,295.232,100.325,325.696,60.195C356.159,20.065,392.433,0,434.467,0C434.467,0,744.083,0,744.083,0C744.083,0,744.083,154.222,744.083,154.222C744.083,154.222,512.042,154.222,512.042,154.222C490.756,154.222,472.497,164.279,457.314,184.442C442.082,204.605,434.467,228.722,434.467,256.891C434.467,256.891,434.467,327.387,434.467,327.387C434.467,354.873,442.034,378.697,457.119,398.86C472.204,419.022,490.512,429.079,512.042,429.079C512.042,429.079,744.083,429.079,744.083,429.079C744.083,429.079,744.083,595.018,744.083,595.018C744.083,595.018,512.042,595.018,512.042,595.018C490.756,595.018,472.497,605.075,457.314,625.238C442.082,645.401,434.467,669.518,434.467,697.687C434.467,697.687,434.467,768.183,434.467,768.183C434.467,795.669,442.034,819.493,457.119,839.656C457.119,839.656,457.119,839.656,457.119,839.656" class="icon-e"/><glyph unicode="&#x0046;" d="M523.298,853.684C539.307,873.854,547.482,867.734,561.483,867.734C561.483,867.734,670.262,867.734,670.262,867.734C670.262,867.734,670.262,1024,670.262,1024C670.262,1024,509.15,1024,509.15,1024C466.559,1024,430.136,1001.725,399.882,957.127C369.627,912.529,354.5,859.118,354.5,796.945C354.5,796.945,354.5,0,354.5,0C354.5,0,509.15,0,509.15,0C509.15,0,509.15,420.723,509.15,420.723C509.15,420.723,670.262,420.723,670.262,420.723C670.262,420.723,670.262,577.478,670.262,577.478C670.262,577.478,509.15,577.478,509.15,577.478C509.15,577.478,509.15,796.896,509.15,796.896C509.15,833.466,513.752,841.641,523.298,853.635C523.298,853.635,523.298,853.684,523.298,853.684" class="icon-f"/><glyph unicode="&#x0047;" d="M744.083,1024C744.083,1024,434.467,1024,434.467,1024C392.384,1024,356.159,1003.935,325.696,963.805C295.232,923.675,280,875.294,280,818.663C280,818.663,280,511.634,280,511.634C280,455.686,295.183,407.598,325.5,367.468C355.817,327.338,392.14,307.273,434.467,307.273C434.467,307.273,512.042,307.273,512.042,307.273C557.737,307.273,519.169,307.957,589.617,306.248C589.617,306.248,589.617,243.905,589.617,243.905C589.617,242.44,589.812,240.927,590.007,239.462C589.958,238.242,589.617,237.021,589.617,235.801C589.617,235.801,589.617,155.785,589.617,155.785C587.908,155.638,586.102,155.492,583.905,155.492C583.905,155.492,282.587,155.492,282.587,155.492C282.587,155.492,282.587,74.939,282.587,74.939C282.49,73.425,282.099,72.01,282.099,70.496C282.099,70.496,282.099,70.496,282.099,70.496C282.099,68.983,282.49,67.567,282.587,66.053C282.587,66.053,282.587,0.244,282.587,0.244C282.587,0.244,356.159,0.244,356.159,0.244C357.136,0.244,358.063,0,359.04,0C359.04,0,650.495,0,650.495,0C653.522,0,656.402,0.488,659.283,0.83C661.724,0.635,664.067,0.146,666.508,0.146C708.982,0.146,743.448,31.684,743.448,70.643C743.448,70.643,743.448,192.546,743.448,192.546C743.644,196.549,743.888,200.406,744.034,204.654C744.034,204.654,744.034,1024,744.034,1024C744.034,1024,744.083,1024,744.083,1024M589.617,563.237C589.617,535.751,582.049,511.927,566.964,491.764C551.879,471.601,533.571,461.545,512.042,461.545C490.512,461.545,472.204,471.601,457.119,491.764C442.034,511.927,434.467,535.751,434.467,563.237C434.467,563.237,434.467,767.158,434.467,767.158C434.467,795.278,442.082,819.444,457.314,839.607C472.546,859.769,490.805,869.826,512.042,869.826C512.042,869.826,589.617,869.826,589.617,869.826C589.617,869.826,589.617,563.285,589.617,563.285C589.617,563.285,589.617,563.237,589.617,563.237" class="icon-g"/><glyph unicode="&#x0048;" d="M698.563,656.5C668.247,696.629,631.927,716.693,589.602,716.693C589.602,716.693,512.031,716.693,512.031,716.693C466.337,716.693,504.903,716.009,434.459,717.718C434.459,717.718,434.459,780.058,434.459,780.058C434.459,781.523,434.264,783.036,434.069,784.5C434.117,785.721,434.459,786.941,434.459,788.162C434.459,788.162,434.459,1024,434.459,1024C434.459,1024,373.584,1024,373.584,1024C370.557,1024,367.677,1023.512,364.796,1023.17C362.355,1023.365,360.012,1023.854,357.571,1023.854C315.051,1023.854,280.586,992.317,280.586,953.361C280.586,953.361,280.586,831.463,280.586,831.463C280.391,827.46,280.146,823.603,280,819.356C280,819.356,280,0,280,0C280,0,434.459,0,434.459,0C434.459,0,434.459,460.741,434.459,460.741C434.459,488.226,442.026,512.049,457.111,532.211C472.195,552.372,490.502,562.429,512.031,562.429C533.559,562.429,551.866,552.372,566.95,532.211C582.035,512.049,589.602,488.226,589.602,460.741C589.602,460.741,589.602,0,589.602,0C589.602,0,744.061,0,744.061,0C744.061,0,744.061,512.342,744.061,512.342C744.061,568.287,728.879,616.372,698.563,656.5C698.563,656.5,698.563,656.5,698.563,656.5" class="icon-h"/><glyph unicode="&#x0049;" d="M435,870.172C435,870.172,435,1024.5,435,1024.5C435,1024.5,589.67,1024.5,589.67,1024.5C589.67,1024.5,589.67,870.172,589.67,870.172C589.67,870.172,435,870.172,435,870.172C435,870.172,435,870.172,435,870.172M435,0.549C435,0.549,435,795.402,435,795.402C435,795.402,589.67,795.402,589.67,795.402C589.67,795.402,589.67,0.5,589.67,0.5C589.67,0.5,435,0.5,435,0.5C435,0.5,435,0.549,435,0.549" class="icon-i"/><glyph unicode="&#x004a;" d="M515.612,1024.5C515.612,1024.5,515.612,227.555,515.612,227.555C515.612,190.985,511.01,182.81,501.464,170.816C485.456,150.646,477.28,156.766,463.279,156.766C463.279,156.766,354.5,156.766,354.5,156.766C354.5,156.766,354.5,0.5,354.5,0.5C354.5,0.5,515.612,0.5,515.612,0.5C558.203,0.5,594.626,22.775,624.881,67.373C655.135,111.971,670.262,165.333,670.262,227.506C670.262,227.506,670.262,1024.5,670.262,1024.5C670.262,1024.5,515.612,1024.5,515.612,1024.5C515.612,1024.5,515.612,1024.5,515.612,1024.5" class="icon-j"/><glyph unicode="&#x004b;" d="M744.061,639.854C744.061,607.39,724.485,577.611,704.714,550.468C688.018,527.573,688.018,496.476,704.714,473.532C724.534,446.389,744.061,416.61,744.061,384.146C744.061,384.146,744.061,0,744.061,0C744.061,0,589.602,0,589.602,0C589.602,0,589.602,332.546,589.602,332.546C589.602,360.031,582.035,383.854,566.95,404.015C551.866,424.177,533.559,434.233,512.031,434.233C490.502,434.233,472.195,424.177,457.111,404.015C442.026,383.854,434.459,360.031,434.459,332.546C434.459,332.546,434.459,0,434.459,0C434.459,0,280,0,280,0C280,0,280,1024,280,1024C280,1024,434.459,1024,434.459,1024C434.459,1024,434.459,691.454,434.459,691.454C434.459,663.969,442.026,640.146,457.111,619.985C472.195,599.823,490.502,589.767,512.031,589.767C533.559,589.767,551.866,599.823,566.95,619.985C582.035,640.146,589.602,663.969,589.602,691.454C589.602,691.454,589.602,796.314,589.602,796.314C589.602,796.314,744.061,796.314,744.061,796.314C744.061,796.314,744.061,639.902,744.061,639.902C744.061,639.902,744.061,639.854,744.061,639.854" class="icon-k"/><glyph unicode="&#x004c;" d="M509.15,1024.5C509.15,1024.5,509.15,227.555,509.15,227.555C509.15,190.985,513.752,182.81,523.298,170.816C539.307,150.646,547.482,156.766,561.483,156.766C561.483,156.766,670.262,156.766,670.262,156.766C670.262,156.766,670.262,0.5,670.262,0.5C670.262,0.5,509.15,0.5,509.15,0.5C466.559,0.5,430.136,22.775,399.882,67.373C369.627,111.971,354.5,165.333,354.5,227.506C354.5,227.506,354.5,1024.5,354.5,1024.5C354.5,1024.5,509.15,1024.5,509.15,1024.5C509.15,1024.5,509.15,1024.5,509.15,1024.5" class="icon-l"/><glyph unicode="&#x004d;" d="M781.674,1022.731C781.674,1022.731,777.33,1022.731,777.33,1022.731C777.33,1022.731,777.33,1024,777.33,1024C777.33,1024,623.215,1024,623.215,1024C623.215,1024,623.215,1023.902,623.215,1023.902C623.215,1023.902,591.202,1023.902,591.202,1023.902C591.202,1023.902,591.202,1022.634,591.202,1022.634C591.202,1022.634,586.858,1022.634,586.858,1022.634C559.627,1022.634,534.153,1015.265,512.143,1002.576C490.085,1015.313,464.562,1022.731,437.233,1022.731C437.233,1022.731,432.89,1022.731,432.89,1022.731C432.89,1022.731,432.89,1024,432.89,1024C432.89,1024,278.775,1024,278.775,1024C278.775,1024,278.775,1023.902,278.775,1023.902C278.775,1023.902,246.761,1023.902,246.761,1023.902C246.761,1023.902,246.761,1022.634,246.761,1022.634C246.761,1022.634,246.615,1022.634,246.615,1022.634C246.615,1022.634,246.615,1023.268,246.615,1023.268C246.615,1023.268,92.5,1023.268,92.5,1023.268C92.5,1023.268,92.5,0.049,92.5,0.049C92.5,0.049,247.347,0.049,247.347,0.049C247.347,0.049,247.347,869.739,247.347,869.739C247.347,869.739,400.925,869.739,400.925,869.739C400.925,869.739,400.925,869.836,400.925,869.836C400.925,869.836,432.402,869.836,432.402,869.836C432.402,869.836,432.402,0.098,432.402,0.098C432.402,0.098,436.892,0.098,436.892,0.098C436.892,0.098,436.892,0,436.892,0C436.892,0,591.738,0,591.738,0C591.738,0,591.738,869.739,591.738,869.739C591.738,869.739,745.316,869.739,745.316,869.739C745.316,869.739,745.316,869.836,745.316,869.836C745.316,869.836,776.793,869.836,776.793,869.836C776.793,869.836,776.793,0.098,776.793,0.098C776.793,0.098,931.64,0.098,931.64,0.098C931.64,0.098,931.64,872.716,931.64,872.716C931.64,955.532,864.49,1022.682,781.674,1022.682C781.674,1022.682,781.674,1022.731,781.674,1022.731" class="icon-m"/><glyph unicode="&#x004e;" d="M587.599,1023.231C587.599,1023.231,583.255,1023.231,583.255,1023.231C583.255,1023.231,583.255,1024.5,583.255,1024.5C583.255,1024.5,429.118,1024.5,429.118,1024.5C429.118,1024.5,429.118,1023.621,429.118,1023.621C429.118,1023.621,286.5,1023.621,286.5,1023.621C286.5,1023.621,286.5,1.379,286.5,1.379C286.5,1.379,440.637,1.379,440.637,1.379C440.637,1.379,440.637,870.363,440.637,870.363C440.637,870.363,582.718,870.363,582.718,870.363C582.718,870.363,582.718,0.5,582.718,0.5C582.718,0.5,737.587,0.5,737.587,0.5C737.587,0.5,737.587,873.194,737.587,873.194C737.636,956.071,670.476,1023.231,587.599,1023.231C587.599,1023.231,587.599,1023.231,587.599,1023.231" class="icon-n"/><glyph unicode="&#x004f;" d="M744.305,1024C744.305,1024,434.54,1024,434.54,1024C392.437,1024,356.196,1003.29,325.717,961.822C295.239,920.403,280,870.485,280,812.02C280,812.02,280,740.953,280,740.953C280,740.953,280,740.953,280,740.953C280,740.953,280,0.781,280,0.781C280,0.781,280.147,0.781,280.147,0.781C280.147,0.781,280,0,280,0C280,0,589.764,0,589.764,0C631.818,0,668.109,20.71,698.587,62.178C729.065,103.597,744.305,153.563,744.305,211.98C744.305,211.98,744.305,283.047,744.305,283.047C744.305,283.047,744.305,283.047,744.305,283.047C744.305,283.047,744.305,1023.219,744.305,1023.219C744.305,1023.219,744.158,1023.219,744.158,1023.219C744.158,1023.219,744.305,1024,744.305,1024C744.305,1024,744.305,1024,744.305,1024M589.764,283.047C589.764,283.047,589.764,265.17,589.764,265.17C589.764,236.109,582.145,211.198,566.906,190.391C551.666,169.584,533.399,159.18,512.152,159.18C512.152,159.18,434.54,159.18,434.54,159.18C434.54,159.18,434.54,548.315,434.54,548.315C434.54,548.315,434.54,740.953,434.54,740.953C434.54,740.953,434.54,758.83,434.54,758.83C434.54,787.891,442.16,812.802,457.399,833.609C472.638,854.416,490.905,864.82,512.152,864.82C512.152,864.82,589.764,864.82,589.764,864.82C589.764,864.82,589.764,475.685,589.764,475.685C589.764,475.685,589.764,283.047,589.764,283.047C589.764,283.047,589.764,283.047,589.764,283.047" class="icon-o"/><glyph unicode="&#x0050;" d="M434.621,0C434.621,0,434.621,234.913,434.621,234.913C434.621,236.184,434.279,237.356,434.23,238.578C434.475,240.044,434.621,241.559,434.621,243.025C434.621,243.025,434.621,305.431,434.621,305.431C505.139,307.19,466.582,306.457,512.274,306.457C512.274,306.457,589.927,306.457,589.927,306.457C632.247,306.457,668.606,326.542,699.002,366.713C729.35,406.883,744.548,454.97,744.548,511.023C744.548,511.023,744.548,818.359,744.548,818.359C744.548,875.047,729.301,923.428,698.807,963.647C668.313,1003.915,632.052,1024,589.927,1024C589.927,1024,280,1024,280,1024C280,1024,280,0,280,0C280,0,434.621,0,434.621,0C434.621,0,434.621,0,434.621,0M434.621,869.623C434.621,869.623,512.274,869.623,512.274,869.623C533.581,869.623,551.858,859.556,567.056,839.373C582.303,819.19,589.927,795.049,589.927,766.852C589.927,766.852,589.927,562.726,589.927,562.726C589.927,535.213,582.352,511.365,567.252,491.182C552.151,470.999,533.825,460.932,512.274,460.932C490.723,460.932,472.397,470.999,457.297,491.182C442.196,511.365,434.621,535.213,434.621,562.726C434.621,562.726,434.621,869.623,434.621,869.623C434.621,869.623,434.621,869.623,434.621,869.623" class="icon-p"/><glyph unicode="&#x0051;" d="M765.887,111.13C765.887,111.13,712.01,165.007,712.01,165.007C715.628,183.047,717.509,202.051,717.509,222.116C717.509,222.116,717.509,292.296,717.509,292.296C717.509,292.296,717.509,292.296,717.509,292.296C717.509,292.296,717.509,1023.228,717.509,1023.228C717.509,1023.228,717.364,1023.228,717.364,1023.228C717.364,1023.228,717.509,1024,717.509,1024C717.509,1024,411.611,1024,411.611,1024C370.034,1024,334.244,1003.549,304.147,962.599C274.049,921.696,259,872.402,259,814.666C259,814.666,259,744.486,259,744.486C259,744.486,259,744.486,259,744.486C259,744.486,259,13.554,259,13.554C259,13.554,259.145,13.554,259.145,13.554C259.145,13.554,259,12.782,259,12.782C259,12.782,564.898,12.782,564.898,12.782C586.555,12.782,606.62,18.377,625.19,29.519C625.19,29.519,654.709,0,654.709,0C654.709,0,765.887,111.179,765.887,111.179C765.887,111.179,765.887,111.13,765.887,111.13M411.611,169.975C411.611,169.975,411.611,554.253,411.611,554.253C411.611,554.253,411.611,744.486,411.611,744.486C411.611,744.486,411.611,762.14,411.611,762.14C411.611,790.839,419.136,815.438,434.185,835.985C449.233,856.533,467.273,866.807,488.254,866.807C488.254,866.807,564.898,866.807,564.898,866.807C564.898,866.807,564.898,482.529,564.898,482.529C564.898,482.529,564.898,312.12,564.898,312.12C564.898,312.12,530.989,346.028,530.989,346.028C530.989,346.028,419.811,234.85,419.811,234.85C419.811,234.85,484.685,169.975,484.685,169.975C484.685,169.975,411.563,169.975,411.563,169.975C411.563,169.975,411.611,169.975,411.611,169.975" class="icon-q"/><glyph unicode="&#x0052;" d="M509.15,0C509.15,0,509.15,796.945,509.15,796.945C509.15,833.515,513.752,841.69,523.298,853.684C539.307,873.854,547.482,867.734,561.483,867.734C561.483,867.734,670.262,867.734,670.262,867.734C670.262,867.734,670.262,1024,670.262,1024C670.262,1024,509.15,1024,509.15,1024C466.559,1024,430.136,1001.725,399.882,957.127C369.627,912.529,354.5,859.118,354.5,796.945C354.5,796.945,354.5,0,354.5,0C354.5,0,509.15,0,509.15,0C509.15,0,509.15,0,509.15,0" class="icon-r"/><glyph unicode="&#x0053;" d="M457.111,839.713C472.195,859.875,490.502,869.931,512.031,869.931C512.031,869.931,744.061,869.931,744.061,869.931C744.061,869.931,744.061,1024,744.061,1024C744.061,1024,432.116,1024,432.116,1024C390.816,1023.268,355.277,1003.35,325.498,963.954C295.182,923.826,280,875.741,280,819.796C280,819.796,280,646.151,280,646.151C280,630.236,281.513,615.152,283.954,600.604C284.247,598.798,284.394,596.845,284.735,595.039C291.326,559.89,304.848,528.5,325.693,501.016C352.299,465.916,383.396,446.194,418.886,441.751C423.963,441.117,429.187,440.775,434.459,440.775C434.459,440.775,519.597,440.775,519.597,440.775C537.611,438.529,553.428,428.815,566.804,410.606C582.035,389.858,589.651,365.01,589.651,336.012C589.651,336.012,589.651,263.42,589.651,263.42C589.651,235.106,582.084,210.551,566.999,189.803C551.915,169.056,533.608,158.706,512.079,158.706C512.079,158.706,280,158.706,280,158.706C280,158.706,280,0,280,0C280,0,591.945,0,591.945,0C633.245,0.781,668.784,21.285,698.563,61.852C728.879,103.201,744.061,152.653,744.061,210.307C744.061,210.307,744.061,389.126,744.061,389.126C744.061,408.702,742.206,427.252,738.74,444.924C738.74,444.924,737.715,444.924,737.715,444.924C730.685,477.828,717.797,507.509,698.368,533.577C667.905,574.535,631.634,594.99,589.602,594.99C589.602,594.99,512.031,594.99,512.031,594.99C490.746,594.99,472.488,605.047,457.306,625.208C442.075,645.37,434.459,669.486,434.459,697.654C434.459,697.654,434.459,768.146,434.459,768.146C434.459,795.631,442.026,819.454,457.111,839.616C457.111,839.616,457.111,839.713,457.111,839.713" class="icon-s"/><glyph unicode="&#x0054;" d="M586.107,1024C586.107,1024,739.751,1024,739.751,1024C739.751,1024,739.751,869.281,739.751,869.281C739.751,869.281,586.107,869.281,586.107,869.281C586.107,869.281,586.107,226.654,586.107,226.654C586.107,190.149,590.701,181.988,600.231,170.015C616.211,149.881,624.372,155.99,638.348,155.99C638.348,155.99,746.935,155.99,746.935,155.99C746.935,155.99,746.935,0,746.935,0C746.935,0,586.107,0,586.107,0C543.591,0,507.233,22.235,477.032,66.755C446.831,111.275,431.73,164.542,431.73,226.605C431.73,226.605,431.73,869.281,431.73,869.281C431.73,869.281,277.5,869.281,277.5,869.281C277.5,869.281,277.5,1024,277.5,1024C277.5,1024,586.107,1024,586.107,1024C586.107,1024,586.107,1024,586.107,1024" class="icon-t"/><glyph unicode="&#x0055;" d="M434.518,1024C434.518,1024,434.518,461.015,434.518,461.015C434.518,461.015,434.518,381.265,434.518,381.265C434.518,381.265,434.518,340.585,434.518,340.585C434.518,340.585,434.518,257.026,434.518,257.026C434.518,229.531,442.088,205.699,457.178,185.529C472.269,165.36,490.582,155.3,512.119,155.3C533.656,155.3,551.969,165.36,567.06,185.529C582.15,205.699,589.72,229.531,589.72,257.026C589.72,257.026,589.72,381.265,589.72,381.265C589.72,381.265,589.72,563.718,589.72,563.718C589.72,563.718,589.72,1024,589.72,1024C589.72,1024,744.238,1024,744.238,1024C744.238,1024,744.238,0.098,744.238,0.098C744.238,0.098,589.72,0.098,589.72,0.098C589.72,0.098,589.72,0,589.72,0C519.249,1.758,557.781,1.026,512.119,1.026C512.119,1.026,434.518,1.026,434.518,1.026C392.226,1.026,355.892,21.097,325.515,61.241C295.188,101.433,280,149.488,280,205.454C280,205.454,280,340.633,280,340.633C280,340.633,280,512.635,280,512.635C280,512.635,280,1024,280,1024C280,1024,434.518,1024,434.518,1024C434.518,1024,434.518,1024,434.518,1024" class="icon-u"/><glyph unicode="&#x0056;" d="M434.525,1024C434.525,1024,280,1024,280,1024C280,1024,280,340.601,280,340.601C280,340.601,280,309.686,280,309.686C280,138.653,418.702,0,589.735,0C589.735,0,589.735,0,589.735,0C589.735,0,744.26,0,744.26,0C744.26,0,744.26,1024,744.26,1024C744.26,1024,589.735,1024,589.735,1024C589.735,1024,589.735,563.696,589.735,563.696C589.735,563.696,589.735,381.235,589.735,381.235C589.735,381.235,589.735,256.989,589.735,256.989C589.735,256.989,590.125,155.258,590.125,155.258C590.125,155.258,590.125,155.258,590.125,155.258C504.56,154.819,434.965,224.023,434.916,309.588C434.916,309.588,434.525,1024,434.525,1024C434.525,1024,434.525,1024,434.525,1024" class="icon-v"/><glyph unicode="&#x0057;" d="M242.474,1.769C242.474,1.769,246.817,1.769,246.817,1.769C246.817,1.769,246.817,0.5,246.817,0.5C246.817,0.5,400.94,0.5,400.94,0.5C400.94,0.5,400.94,0.598,400.94,0.598C400.94,0.598,432.955,0.598,432.955,0.598C432.955,0.598,432.955,1.867,432.955,1.867C432.955,1.867,437.298,1.867,437.298,1.867C464.531,1.867,490.006,9.236,512.017,21.925C534.076,9.187,559.601,1.769,586.931,1.769C586.931,1.769,591.274,1.769,591.274,1.769C591.274,1.769,591.274,0.5,591.274,0.5C591.274,0.5,745.396,0.5,745.396,0.5C745.396,0.5,745.396,0.598,745.396,0.598C745.396,0.598,777.412,0.598,777.412,0.598C777.412,0.598,777.412,1.867,777.412,1.867C777.412,1.867,777.558,1.867,777.558,1.867C777.558,1.867,777.558,1.232,777.558,1.232C777.558,1.232,931.68,1.232,931.68,1.232C931.68,1.232,931.68,1024.5,931.68,1024.5C931.68,1024.5,776.826,1024.5,776.826,1024.5C776.826,1024.5,776.826,154.72,776.826,154.72C776.826,154.72,623.241,154.72,623.241,154.72C623.241,154.72,623.241,154.622,623.241,154.622C623.241,154.622,591.762,154.622,591.762,154.622C591.762,154.622,591.762,1024.402,591.762,1024.402C591.762,1024.402,587.272,1024.402,587.272,1024.402C587.272,1024.402,587.272,1024.5,587.272,1024.5C587.272,1024.5,432.418,1024.5,432.418,1024.5C432.418,1024.5,432.418,154.72,432.418,154.72C432.418,154.72,278.833,154.72,278.833,154.72C278.833,154.72,278.833,154.622,278.833,154.622C278.833,154.622,247.354,154.622,247.354,154.622C247.354,154.622,247.354,1024.402,247.354,1024.402C247.354,1024.402,92.5,1024.402,92.5,1024.402C92.5,1024.402,92.5,151.792,92.5,151.792C92.5,68.972,159.654,1.818,242.474,1.818C242.474,1.818,242.474,1.769,242.474,1.769" class="icon-2"/><glyph unicode="&#x0058;" d="M589.602,1024C589.602,1024,589.602,691.454,589.602,691.454C589.602,663.969,582.035,640.146,566.95,619.985C551.866,599.823,533.559,589.767,512.031,589.767C490.502,589.767,472.195,599.823,457.111,619.985C442.026,640.146,434.459,663.969,434.459,691.454C434.459,691.454,434.459,1024,434.459,1024C434.459,1024,280,1024,280,1024C280,1024,280,639.854,280,639.854C280,607.39,299.576,577.611,319.347,550.468C336.043,527.573,336.043,496.476,319.347,473.532C299.527,446.389,280,416.61,280,384.146C280,384.146,280,0,280,0C280,0,434.459,0,434.459,0C434.459,0,434.459,332.546,434.459,332.546C434.459,360.031,442.026,383.854,457.111,404.015C472.195,424.177,490.502,434.233,512.031,434.233C533.559,434.233,551.866,424.177,566.95,404.015C582.035,383.854,589.602,360.031,589.602,332.546C589.602,332.546,589.602,0,589.602,0C589.602,0,744.061,0,744.061,0C744.061,0,744.061,384.146,744.061,384.146C744.061,416.61,724.485,446.389,704.714,473.532C688.018,496.427,688.018,527.524,704.714,550.468C724.534,577.611,744.061,607.39,744.061,639.854C744.061,639.854,744.061,1024,744.061,1024C744.061,1024,589.602,1024,589.602,1024C589.602,1024,589.602,1024,589.602,1024" class="icon-x"/><glyph unicode="&#x0059;" d="M705.131,549.949C732.304,569.741,744.522,606.932,744.522,639.432C744.522,639.432,744.522,1024,744.522,1024C744.522,1024,589.893,1024,589.893,1024C589.893,1024,589.893,691.089,589.893,691.089C589.893,663.574,582.318,639.725,567.217,619.541C552.115,599.357,533.789,589.29,512.236,589.29C490.684,589.29,472.357,599.357,457.256,619.541C442.155,639.725,434.58,663.574,434.58,691.089C434.58,691.089,434.58,1024,434.58,1024C434.58,1024,280,1024,280,1024C280,1024,280,639.432,280,639.432C280,606.932,289.188,564.659,319.39,549.949C347.638,536.216,384.145,533.039,411.855,523.314C425.832,518.378,435.069,504.987,435.069,490.179C435.069,490.179,435.069,0,435.069,0C435.069,0,589.404,0,589.404,0C589.404,0,589.404,485.781,589.404,485.781C589.404,503.081,601.182,518.378,618.043,522.239C645.117,528.494,680.256,531.915,705.082,549.949C705.082,549.949,705.131,549.949,705.131,549.949" class="icon-y"/><glyph unicode="&#x005a;" d="M744.061,157.242C744.061,157.242,744.061,0,744.061,0C744.061,0,432.116,0,432.116,0C429.87,0,427.674,0.391,425.428,0.537C425.428,0.537,280,0.537,280,0.537C280,0.537,280,385.513,280,385.513C280,403.771,286.151,418.905,302.651,437.651C302.651,437.651,280,437.651,280,437.651C280,437.651,280,592.696,280,592.696C280,592.696,412.003,592.696,412.003,592.696C412.003,592.696,528.433,594.99,528.433,594.99C542.834,598.944,555.625,608.22,566.804,623.06C582.035,643.32,589.651,667.582,589.651,695.896C589.651,695.896,589.651,766.78,589.651,766.78C589.651,766.78,589.26,867.979,589.26,867.979C589.26,867.979,512.079,869.004,512.079,869.004C512.079,869.004,280,869.004,280,869.004C280,869.004,280,1024,280,1024C280,1024,744.061,1024,744.061,1024C744.061,1024,744.061,644.101,744.061,644.101C744.061,626.966,738.593,606.462,721.214,594.99C721.214,594.99,744.061,594.99,744.061,594.99C744.061,594.99,744.061,437.651,744.061,437.651C744.061,437.651,512.031,437.651,512.031,437.651C490.746,437.651,472.488,427.35,457.306,406.798C442.075,386.246,434.459,361.593,434.459,332.888C434.459,332.888,434.459,260.931,434.459,260.931C434.459,260.931,434.801,158.316,434.801,158.316C434.801,158.316,744.061,157.193,744.061,157.193C744.061,157.193,744.061,157.242,744.061,157.242" class="icon-z"/><glyph unicode="&#x0061;" d="M744.083,819.395C743.937,823.643,743.693,827.499,743.497,831.503C743.497,831.503,743.497,953.357,743.497,953.357C743.448,992.316,709.03,1023.854,666.557,1023.854C664.067,1023.854,661.724,1023.414,659.332,1023.17C656.402,1023.463,653.522,1024,650.544,1024C650.544,1024,358.991,1024,358.991,1024C358.014,1024,357.087,1023.756,356.11,1023.756C356.11,1023.756,282.587,1023.756,282.587,1023.756C282.587,1023.756,282.587,957.947,282.587,957.947C282.49,956.433,282.099,955.017,282.099,953.504C282.099,953.504,282.099,953.504,282.099,953.504C282.099,951.99,282.49,950.575,282.587,949.061C282.587,949.061,282.587,868.508,282.587,868.508C282.587,868.508,583.953,868.508,583.953,868.508C586.15,868.508,587.957,868.362,589.665,868.215C589.665,868.215,589.665,788.199,589.665,788.199C589.665,786.93,590.007,785.758,590.056,784.538C589.812,783.073,589.665,781.56,589.665,780.095C589.665,780.095,589.665,717.752,589.665,717.752C519.218,715.994,557.737,716.727,512.09,716.727C512.09,716.727,434.515,716.727,434.515,716.727C392.237,716.727,355.915,696.662,325.549,656.532C295.183,616.353,280,568.314,280,512.366C280,512.366,280,205.337,280,205.337C280,148.706,295.232,100.374,325.696,60.195C356.159,20.065,392.384,0,434.467,0C434.467,0,744.083,0,744.083,0C744.083,0,744.083,819.395,744.083,819.395C744.083,819.395,744.083,819.395,744.083,819.395M589.617,154.222C589.617,154.222,512.042,154.222,512.042,154.222C490.756,154.222,472.497,164.279,457.314,184.442C442.082,204.605,434.467,228.722,434.467,256.891C434.467,256.891,434.467,460.812,434.467,460.812C434.467,488.298,442.034,512.122,457.119,532.285C472.204,552.447,490.512,562.504,512.042,562.504C533.571,562.504,551.879,552.447,566.964,532.285C582.049,512.122,589.617,488.298,589.617,460.812C589.617,460.812,589.617,154.271,589.617,154.271C589.617,154.271,589.617,154.222,589.617,154.222" class="icon-a"/><glyph unicode="&#x0062;" d="M280,1024C280,1024,280,0,280,0C280,0,589.927,0,589.927,0C632.003,0,668.313,20.085,698.807,60.255C729.301,100.426,744.548,148.855,744.548,205.543C744.548,205.543,744.548,512.88,744.548,512.88C744.548,568.883,729.35,617.019,699.002,657.19C668.655,697.36,632.296,717.445,589.927,717.445C589.927,717.445,512.274,717.445,512.274,717.445C466.533,717.445,505.139,716.761,434.621,718.471C434.621,718.471,434.621,780.877,434.621,780.877C434.621,782.343,434.426,783.858,434.23,785.324C434.279,786.546,434.621,787.767,434.621,788.989C434.621,788.989,434.621,1024,434.621,1024C434.621,1024,280,1024,280,1024C280,1024,280,1024,280,1024M434.621,461.274C434.621,488.787,442.196,512.635,457.297,532.818C472.397,553.001,490.723,563.068,512.274,563.068C533.825,563.068,552.151,553.001,567.252,532.818C582.352,512.635,589.927,488.787,589.927,461.274C589.927,461.274,589.927,257.148,589.927,257.148C589.927,229,582.303,204.81,567.056,184.627C551.809,164.444,533.532,154.377,512.274,154.377C512.274,154.377,434.621,154.377,434.621,154.377C434.621,154.377,434.621,461.225,434.621,461.225C434.621,461.225,434.621,461.274,434.621,461.274" class="icon-b"/><glyph unicode="&#x0063;" d="M325.559,963.874C295.203,923.692,280,875.542,280,819.523C280,819.523,280,205.602,280,205.602C280,148.897,295.251,100.503,325.754,60.273C356.257,20.091,392.577,0,434.666,0C434.666,0,744.681,0,744.681,0C744.681,0,744.681,154.421,744.681,154.421C744.681,154.421,512.341,154.421,512.341,154.421C491.028,154.421,472.745,164.491,457.543,184.68C442.291,204.868,434.666,229.017,434.666,257.222C434.666,257.222,434.666,767.853,434.666,767.853C434.666,795.374,442.243,819.229,457.347,839.418C472.452,859.607,490.783,869.677,512.341,869.677C512.341,869.677,744.681,869.677,744.681,869.677C744.681,869.677,744.681,1024,744.681,1024C744.681,1024,432.319,1024,432.319,1024C390.964,1023.267,355.378,1003.323,325.559,963.874C325.559,963.874,325.559,963.874,325.559,963.874" class="icon-c"/><glyph unicode="&#x0064;" d="M589.927,1024C589.927,1024,589.927,789.087,589.927,789.087C589.927,787.816,590.269,786.644,590.318,785.422C590.073,783.956,589.927,782.441,589.927,780.975C589.927,780.975,589.927,718.569,589.927,718.569C519.409,716.81,557.967,717.543,512.274,717.543C512.274,717.543,434.621,717.543,434.621,717.543C392.301,717.543,355.942,697.458,325.546,657.287C295.198,617.019,280,568.932,280,512.88C280,512.88,280,205.543,280,205.543C280,148.855,295.247,100.475,325.741,60.255C356.236,20.085,392.496,0,434.621,0C434.621,0,744.548,0,744.548,0C744.548,0,744.548,1024,744.548,1024C744.548,1024,589.927,1024,589.927,1024C589.927,1024,589.927,1024,589.927,1024M589.927,154.377C589.927,154.377,512.274,154.377,512.274,154.377C490.967,154.377,472.69,164.444,457.492,184.627C442.245,204.81,434.621,228.951,434.621,257.148C434.621,257.148,434.621,461.274,434.621,461.274C434.621,488.787,442.196,512.635,457.297,532.818C472.397,553.001,490.723,563.068,512.274,563.068C533.825,563.068,552.151,553.001,567.252,532.818C582.352,512.635,589.927,488.787,589.927,461.274C589.927,461.274,589.927,154.426,589.927,154.426C589.927,154.426,589.927,154.377,589.927,154.377" class="icon-d"/><glyph unicode="&#x0065;" d="M457.119,839.656C472.204,859.818,490.512,869.875,512.042,869.875C512.042,869.875,744.083,869.875,744.083,869.875C744.083,869.875,744.083,1024,744.083,1024C744.083,1024,432.123,1024,432.123,1024C390.821,1023.268,355.28,1003.3,325.5,963.951C295.183,923.772,280,875.734,280,819.786C280,819.786,280,646.133,280,646.133C280,594.628,292.742,550.055,317.933,512.171C292.742,474.335,280,429.958,280,378.941C280,378.941,280,205.288,280,205.288C280,148.657,295.232,100.325,325.696,60.195C356.159,20.065,392.433,0,434.467,0C434.467,0,744.083,0,744.083,0C744.083,0,744.083,154.222,744.083,154.222C744.083,154.222,512.042,154.222,512.042,154.222C490.756,154.222,472.497,164.279,457.314,184.442C442.082,204.605,434.467,228.722,434.467,256.891C434.467,256.891,434.467,327.387,434.467,327.387C434.467,354.873,442.034,378.697,457.119,398.86C472.204,419.022,490.512,429.079,512.042,429.079C512.042,429.079,744.083,429.079,744.083,429.079C744.083,429.079,744.083,595.018,744.083,595.018C744.083,595.018,512.042,595.018,512.042,595.018C490.756,595.018,472.497,605.075,457.314,625.238C442.082,645.401,434.467,669.518,434.467,697.687C434.467,697.687,434.467,768.183,434.467,768.183C434.467,795.669,442.034,819.493,457.119,839.656C457.119,839.656,457.119,839.656,457.119,839.656" class="icon-e"/><glyph unicode="&#x0066;" d="M523.298,853.684C539.307,873.854,547.482,867.734,561.483,867.734C561.483,867.734,670.262,867.734,670.262,867.734C670.262,867.734,670.262,1024,670.262,1024C670.262,1024,509.15,1024,509.15,1024C466.559,1024,430.136,1001.725,399.882,957.127C369.627,912.529,354.5,859.118,354.5,796.945C354.5,796.945,354.5,0,354.5,0C354.5,0,509.15,0,509.15,0C509.15,0,509.15,420.723,509.15,420.723C509.15,420.723,670.262,420.723,670.262,420.723C670.262,420.723,670.262,577.478,670.262,577.478C670.262,577.478,509.15,577.478,509.15,577.478C509.15,577.478,509.15,796.896,509.15,796.896C509.15,833.466,513.752,841.641,523.298,853.635C523.298,853.635,523.298,853.684,523.298,853.684" class="icon-f"/><glyph unicode="&#x0067;" d="M744.083,1024C744.083,1024,434.467,1024,434.467,1024C392.384,1024,356.159,1003.935,325.696,963.805C295.232,923.675,280,875.294,280,818.663C280,818.663,280,511.634,280,511.634C280,455.686,295.183,407.598,325.5,367.468C355.817,327.338,392.14,307.273,434.467,307.273C434.467,307.273,512.042,307.273,512.042,307.273C557.737,307.273,519.169,307.957,589.617,306.248C589.617,306.248,589.617,243.905,589.617,243.905C589.617,242.44,589.812,240.927,590.007,239.462C589.958,238.242,589.617,237.021,589.617,235.801C589.617,235.801,589.617,155.785,589.617,155.785C587.908,155.638,586.102,155.492,583.905,155.492C583.905,155.492,282.587,155.492,282.587,155.492C282.587,155.492,282.587,74.939,282.587,74.939C282.49,73.425,282.099,72.01,282.099,70.496C282.099,70.496,282.099,70.496,282.099,70.496C282.099,68.983,282.49,67.567,282.587,66.053C282.587,66.053,282.587,0.244,282.587,0.244C282.587,0.244,356.159,0.244,356.159,0.244C357.136,0.244,358.063,0,359.04,0C359.04,0,650.495,0,650.495,0C653.522,0,656.402,0.488,659.283,0.83C661.724,0.635,664.067,0.146,666.508,0.146C708.982,0.146,743.448,31.684,743.448,70.643C743.448,70.643,743.448,192.546,743.448,192.546C743.644,196.549,743.888,200.406,744.034,204.654C744.034,204.654,744.034,1024,744.034,1024C744.034,1024,744.083,1024,744.083,1024M589.617,563.237C589.617,535.751,582.049,511.927,566.964,491.764C551.879,471.601,533.571,461.545,512.042,461.545C490.512,461.545,472.204,471.601,457.119,491.764C442.034,511.927,434.467,535.751,434.467,563.237C434.467,563.237,434.467,767.158,434.467,767.158C434.467,795.278,442.082,819.444,457.314,839.607C472.546,859.769,490.805,869.826,512.042,869.826C512.042,869.826,589.617,869.826,589.617,869.826C589.617,869.826,589.617,563.285,589.617,563.285C589.617,563.285,589.617,563.237,589.617,563.237" class="icon-g"/><glyph unicode="&#x0068;" d="M698.563,656.5C668.247,696.629,631.927,716.693,589.602,716.693C589.602,716.693,512.031,716.693,512.031,716.693C466.337,716.693,504.903,716.009,434.459,717.718C434.459,717.718,434.459,780.058,434.459,780.058C434.459,781.523,434.264,783.036,434.069,784.5C434.117,785.721,434.459,786.941,434.459,788.162C434.459,788.162,434.459,1024,434.459,1024C434.459,1024,373.584,1024,373.584,1024C370.557,1024,367.677,1023.512,364.796,1023.17C362.355,1023.365,360.012,1023.854,357.571,1023.854C315.051,1023.854,280.586,992.317,280.586,953.361C280.586,953.361,280.586,831.463,280.586,831.463C280.391,827.46,280.146,823.603,280,819.356C280,819.356,280,0,280,0C280,0,434.459,0,434.459,0C434.459,0,434.459,460.741,434.459,460.741C434.459,488.226,442.026,512.049,457.111,532.211C472.195,552.372,490.502,562.429,512.031,562.429C533.559,562.429,551.866,552.372,566.95,532.211C582.035,512.049,589.602,488.226,589.602,460.741C589.602,460.741,589.602,0,589.602,0C589.602,0,744.061,0,744.061,0C744.061,0,744.061,512.342,744.061,512.342C744.061,568.287,728.879,616.372,698.563,656.5C698.563,656.5,698.563,656.5,698.563,656.5" class="icon-h"/><glyph unicode="&#x0069;" d="M435,870.172C435,870.172,435,1024.5,435,1024.5C435,1024.5,589.67,1024.5,589.67,1024.5C589.67,1024.5,589.67,870.172,589.67,870.172C589.67,870.172,435,870.172,435,870.172C435,870.172,435,870.172,435,870.172M435,0.549C435,0.549,435,795.402,435,795.402C435,795.402,589.67,795.402,589.67,795.402C589.67,795.402,589.67,0.5,589.67,0.5C589.67,0.5,435,0.5,435,0.5C435,0.5,435,0.549,435,0.549" class="icon-i"/><glyph unicode="&#x006a;" d="M515.612,1024.5C515.612,1024.5,515.612,227.555,515.612,227.555C515.612,190.985,511.01,182.81,501.464,170.816C485.456,150.646,477.28,156.766,463.279,156.766C463.279,156.766,354.5,156.766,354.5,156.766C354.5,156.766,354.5,0.5,354.5,0.5C354.5,0.5,515.612,0.5,515.612,0.5C558.203,0.5,594.626,22.775,624.881,67.373C655.135,111.971,670.262,165.333,670.262,227.506C670.262,227.506,670.262,1024.5,670.262,1024.5C670.262,1024.5,515.612,1024.5,515.612,1024.5C515.612,1024.5,515.612,1024.5,515.612,1024.5" class="icon-j"/><glyph unicode="&#x006b;" d="M744.061,639.854C744.061,607.39,724.485,577.611,704.714,550.468C688.018,527.573,688.018,496.476,704.714,473.532C724.534,446.389,744.061,416.61,744.061,384.146C744.061,384.146,744.061,0,744.061,0C744.061,0,589.602,0,589.602,0C589.602,0,589.602,332.546,589.602,332.546C589.602,360.031,582.035,383.854,566.95,404.015C551.866,424.177,533.559,434.233,512.031,434.233C490.502,434.233,472.195,424.177,457.111,404.015C442.026,383.854,434.459,360.031,434.459,332.546C434.459,332.546,434.459,0,434.459,0C434.459,0,280,0,280,0C280,0,280,1024,280,1024C280,1024,434.459,1024,434.459,1024C434.459,1024,434.459,691.454,434.459,691.454C434.459,663.969,442.026,640.146,457.111,619.985C472.195,599.823,490.502,589.767,512.031,589.767C533.559,589.767,551.866,599.823,566.95,619.985C582.035,640.146,589.602,663.969,589.602,691.454C589.602,691.454,589.602,796.314,589.602,796.314C589.602,796.314,744.061,796.314,744.061,796.314C744.061,796.314,744.061,639.902,744.061,639.902C744.061,639.902,744.061,639.854,744.061,639.854" class="icon-k"/><glyph unicode="&#x006c;" d="M509.15,1024.5C509.15,1024.5,509.15,227.555,509.15,227.555C509.15,190.985,513.752,182.81,523.298,170.816C539.307,150.646,547.482,156.766,561.483,156.766C561.483,156.766,670.262,156.766,670.262,156.766C670.262,156.766,670.262,0.5,670.262,0.5C670.262,0.5,509.15,0.5,509.15,0.5C466.559,0.5,430.136,22.775,399.882,67.373C369.627,111.971,354.5,165.333,354.5,227.506C354.5,227.506,354.5,1024.5,354.5,1024.5C354.5,1024.5,509.15,1024.5,509.15,1024.5C509.15,1024.5,509.15,1024.5,509.15,1024.5" class="icon-l"/><glyph unicode="&#x006d;" d="M781.674,1022.731C781.674,1022.731,777.33,1022.731,777.33,1022.731C777.33,1022.731,777.33,1024,777.33,1024C777.33,1024,623.215,1024,623.215,1024C623.215,1024,623.215,1023.902,623.215,1023.902C623.215,1023.902,591.202,1023.902,591.202,1023.902C591.202,1023.902,591.202,1022.634,591.202,1022.634C591.202,1022.634,586.858,1022.634,586.858,1022.634C559.627,1022.634,534.153,1015.265,512.143,1002.576C490.085,1015.313,464.562,1022.731,437.233,1022.731C437.233,1022.731,432.89,1022.731,432.89,1022.731C432.89,1022.731,432.89,1024,432.89,1024C432.89,1024,278.775,1024,278.775,1024C278.775,1024,278.775,1023.902,278.775,1023.902C278.775,1023.902,246.761,1023.902,246.761,1023.902C246.761,1023.902,246.761,1022.634,246.761,1022.634C246.761,1022.634,246.615,1022.634,246.615,1022.634C246.615,1022.634,246.615,1023.268,246.615,1023.268C246.615,1023.268,92.5,1023.268,92.5,1023.268C92.5,1023.268,92.5,0.049,92.5,0.049C92.5,0.049,247.347,0.049,247.347,0.049C247.347,0.049,247.347,869.739,247.347,869.739C247.347,869.739,400.925,869.739,400.925,869.739C400.925,869.739,400.925,869.836,400.925,869.836C400.925,869.836,432.402,869.836,432.402,869.836C432.402,869.836,432.402,0.098,432.402,0.098C432.402,0.098,436.892,0.098,436.892,0.098C436.892,0.098,436.892,0,436.892,0C436.892,0,591.738,0,591.738,0C591.738,0,591.738,869.739,591.738,869.739C591.738,869.739,745.316,869.739,745.316,869.739C745.316,869.739,745.316,869.836,745.316,869.836C745.316,869.836,776.793,869.836,776.793,869.836C776.793,869.836,776.793,0.098,776.793,0.098C776.793,0.098,931.64,0.098,931.64,0.098C931.64,0.098,931.64,872.716,931.64,872.716C931.64,955.532,864.49,1022.682,781.674,1022.682C781.674,1022.682,781.674,1022.731,781.674,1022.731" class="icon-m"/><glyph unicode="&#x006e;" d="M587.599,1023.231C587.599,1023.231,583.255,1023.231,583.255,1023.231C583.255,1023.231,583.255,1024.5,583.255,1024.5C583.255,1024.5,429.118,1024.5,429.118,1024.5C429.118,1024.5,429.118,1023.621,429.118,1023.621C429.118,1023.621,286.5,1023.621,286.5,1023.621C286.5,1023.621,286.5,1.379,286.5,1.379C286.5,1.379,440.637,1.379,440.637,1.379C440.637,1.379,440.637,870.363,440.637,870.363C440.637,870.363,582.718,870.363,582.718,870.363C582.718,870.363,582.718,0.5,582.718,0.5C582.718,0.5,737.587,0.5,737.587,0.5C737.587,0.5,737.587,873.194,737.587,873.194C737.636,956.071,670.476,1023.231,587.599,1023.231C587.599,1023.231,587.599,1023.231,587.599,1023.231" class="icon-n"/><glyph unicode="&#x006f;" d="M744.305,1024C744.305,1024,434.54,1024,434.54,1024C392.437,1024,356.196,1003.29,325.717,961.822C295.239,920.403,280,870.485,280,812.02C280,812.02,280,740.953,280,740.953C280,740.953,280,740.953,280,740.953C280,740.953,280,0.781,280,0.781C280,0.781,280.147,0.781,280.147,0.781C280.147,0.781,280,0,280,0C280,0,589.764,0,589.764,0C631.818,0,668.109,20.71,698.587,62.178C729.065,103.597,744.305,153.563,744.305,211.98C744.305,211.98,744.305,283.047,744.305,283.047C744.305,283.047,744.305,283.047,744.305,283.047C744.305,283.047,744.305,1023.219,744.305,1023.219C744.305,1023.219,744.158,1023.219,744.158,1023.219C744.158,1023.219,744.305,1024,744.305,1024C744.305,1024,744.305,1024,744.305,1024M589.764,283.047C589.764,283.047,589.764,265.17,589.764,265.17C589.764,236.109,582.145,211.198,566.906,190.391C551.666,169.584,533.399,159.18,512.152,159.18C512.152,159.18,434.54,159.18,434.54,159.18C434.54,159.18,434.54,548.315,434.54,548.315C434.54,548.315,434.54,740.953,434.54,740.953C434.54,740.953,434.54,758.83,434.54,758.83C434.54,787.891,442.16,812.802,457.399,833.609C472.638,854.416,490.905,864.82,512.152,864.82C512.152,864.82,589.764,864.82,589.764,864.82C589.764,864.82,589.764,475.685,589.764,475.685C589.764,475.685,589.764,283.047,589.764,283.047C589.764,283.047,589.764,283.047,589.764,283.047" class="icon-o"/><glyph unicode="&#x0070;" d="M434.621,0C434.621,0,434.621,234.913,434.621,234.913C434.621,236.184,434.279,237.356,434.23,238.578C434.475,240.044,434.621,241.559,434.621,243.025C434.621,243.025,434.621,305.431,434.621,305.431C505.139,307.19,466.582,306.457,512.274,306.457C512.274,306.457,589.927,306.457,589.927,306.457C632.247,306.457,668.606,326.542,699.002,366.713C729.35,406.883,744.548,454.97,744.548,511.023C744.548,511.023,744.548,818.359,744.548,818.359C744.548,875.047,729.301,923.428,698.807,963.647C668.313,1003.915,632.052,1024,589.927,1024C589.927,1024,280,1024,280,1024C280,1024,280,0,280,0C280,0,434.621,0,434.621,0C434.621,0,434.621,0,434.621,0M434.621,869.623C434.621,869.623,512.274,869.623,512.274,869.623C533.581,869.623,551.858,859.556,567.056,839.373C582.303,819.19,589.927,795.049,589.927,766.852C589.927,766.852,589.927,562.726,589.927,562.726C589.927,535.213,582.352,511.365,567.252,491.182C552.151,470.999,533.825,460.932,512.274,460.932C490.723,460.932,472.397,470.999,457.297,491.182C442.196,511.365,434.621,535.213,434.621,562.726C434.621,562.726,434.621,869.623,434.621,869.623C434.621,869.623,434.621,869.623,434.621,869.623" class="icon-p"/><glyph unicode="&#x0071;" d="M765.887,111.13C765.887,111.13,712.01,165.007,712.01,165.007C715.628,183.047,717.509,202.051,717.509,222.116C717.509,222.116,717.509,292.296,717.509,292.296C717.509,292.296,717.509,292.296,717.509,292.296C717.509,292.296,717.509,1023.228,717.509,1023.228C717.509,1023.228,717.364,1023.228,717.364,1023.228C717.364,1023.228,717.509,1024,717.509,1024C717.509,1024,411.611,1024,411.611,1024C370.034,1024,334.244,1003.549,304.147,962.599C274.049,921.696,259,872.402,259,814.666C259,814.666,259,744.486,259,744.486C259,744.486,259,744.486,259,744.486C259,744.486,259,13.554,259,13.554C259,13.554,259.145,13.554,259.145,13.554C259.145,13.554,259,12.782,259,12.782C259,12.782,564.898,12.782,564.898,12.782C586.555,12.782,606.62,18.377,625.19,29.519C625.19,29.519,654.709,0,654.709,0C654.709,0,765.887,111.179,765.887,111.179C765.887,111.179,765.887,111.13,765.887,111.13M411.611,169.975C411.611,169.975,411.611,554.253,411.611,554.253C411.611,554.253,411.611,744.486,411.611,744.486C411.611,744.486,411.611,762.14,411.611,762.14C411.611,790.839,419.136,815.438,434.185,835.985C449.233,856.533,467.273,866.807,488.254,866.807C488.254,866.807,564.898,866.807,564.898,866.807C564.898,866.807,564.898,482.529,564.898,482.529C564.898,482.529,564.898,312.12,564.898,312.12C564.898,312.12,530.989,346.028,530.989,346.028C530.989,346.028,419.811,234.85,419.811,234.85C419.811,234.85,484.685,169.975,484.685,169.975C484.685,169.975,411.563,169.975,411.563,169.975C411.563,169.975,411.611,169.975,411.611,169.975" class="icon-q"/><glyph unicode="&#x0072;" d="M509.15,0C509.15,0,509.15,796.945,509.15,796.945C509.15,833.515,513.752,841.69,523.298,853.684C539.307,873.854,547.482,867.734,561.483,867.734C561.483,867.734,670.262,867.734,670.262,867.734C670.262,867.734,670.262,1024,670.262,1024C670.262,1024,509.15,1024,509.15,1024C466.559,1024,430.136,1001.725,399.882,957.127C369.627,912.529,354.5,859.118,354.5,796.945C354.5,796.945,354.5,0,354.5,0C354.5,0,509.15,0,509.15,0C509.15,0,509.15,0,509.15,0" class="icon-r"/><glyph unicode="&#x0073;" d="M457.111,839.713C472.195,859.875,490.502,869.931,512.031,869.931C512.031,869.931,744.061,869.931,744.061,869.931C744.061,869.931,744.061,1024,744.061,1024C744.061,1024,432.116,1024,432.116,1024C390.816,1023.268,355.277,1003.35,325.498,963.954C295.182,923.826,280,875.741,280,819.796C280,819.796,280,646.151,280,646.151C280,630.236,281.513,615.152,283.954,600.604C284.247,598.798,284.394,596.845,284.735,595.039C291.326,559.89,304.848,528.5,325.693,501.016C352.299,465.916,383.396,446.194,418.886,441.751C423.963,441.117,429.187,440.775,434.459,440.775C434.459,440.775,519.597,440.775,519.597,440.775C537.611,438.529,553.428,428.815,566.804,410.606C582.035,389.858,589.651,365.01,589.651,336.012C589.651,336.012,589.651,263.42,589.651,263.42C589.651,235.106,582.084,210.551,566.999,189.803C551.915,169.056,533.608,158.706,512.079,158.706C512.079,158.706,280,158.706,280,158.706C280,158.706,280,0,280,0C280,0,591.945,0,591.945,0C633.245,0.781,668.784,21.285,698.563,61.852C728.879,103.201,744.061,152.653,744.061,210.307C744.061,210.307,744.061,389.126,744.061,389.126C744.061,408.702,742.206,427.252,738.74,444.924C738.74,444.924,737.715,444.924,737.715,444.924C730.685,477.828,717.797,507.509,698.368,533.577C667.905,574.535,631.634,594.99,589.602,594.99C589.602,594.99,512.031,594.99,512.031,594.99C490.746,594.99,472.488,605.047,457.306,625.208C442.075,645.37,434.459,669.486,434.459,697.654C434.459,697.654,434.459,768.146,434.459,768.146C434.459,795.631,442.026,819.454,457.111,839.616C457.111,839.616,457.111,839.713,457.111,839.713" class="icon-s"/><glyph unicode="&#x0074;" d="M586.107,1024C586.107,1024,739.751,1024,739.751,1024C739.751,1024,739.751,869.281,739.751,869.281C739.751,869.281,586.107,869.281,586.107,869.281C586.107,869.281,586.107,226.654,586.107,226.654C586.107,190.149,590.701,181.988,600.231,170.015C616.211,149.881,624.372,155.99,638.348,155.99C638.348,155.99,746.935,155.99,746.935,155.99C746.935,155.99,746.935,0,746.935,0C746.935,0,586.107,0,586.107,0C543.591,0,507.233,22.235,477.032,66.755C446.831,111.275,431.73,164.542,431.73,226.605C431.73,226.605,431.73,869.281,431.73,869.281C431.73,869.281,277.5,869.281,277.5,869.281C277.5,869.281,277.5,1024,277.5,1024C277.5,1024,586.107,1024,586.107,1024C586.107,1024,586.107,1024,586.107,1024" class="icon-t"/><glyph unicode="&#x0075;" d="M434.518,1024C434.518,1024,434.518,461.015,434.518,461.015C434.518,461.015,434.518,381.265,434.518,381.265C434.518,381.265,434.518,340.585,434.518,340.585C434.518,340.585,434.518,257.026,434.518,257.026C434.518,229.531,442.088,205.699,457.178,185.529C472.269,165.36,490.582,155.3,512.119,155.3C533.656,155.3,551.969,165.36,567.06,185.529C582.15,205.699,589.72,229.531,589.72,257.026C589.72,257.026,589.72,381.265,589.72,381.265C589.72,381.265,589.72,563.718,589.72,563.718C589.72,563.718,589.72,1024,589.72,1024C589.72,1024,744.238,1024,744.238,1024C744.238,1024,744.238,0.098,744.238,0.098C744.238,0.098,589.72,0.098,589.72,0.098C589.72,0.098,589.72,0,589.72,0C519.249,1.758,557.781,1.026,512.119,1.026C512.119,1.026,434.518,1.026,434.518,1.026C392.226,1.026,355.892,21.097,325.515,61.241C295.188,101.433,280,149.488,280,205.454C280,205.454,280,340.633,280,340.633C280,340.633,280,512.635,280,512.635C280,512.635,280,1024,280,1024C280,1024,434.518,1024,434.518,1024C434.518,1024,434.518,1024,434.518,1024" class="icon-u"/><glyph unicode="&#x0076;" d="M434.525,1024C434.525,1024,280,1024,280,1024C280,1024,280,340.601,280,340.601C280,340.601,280,309.686,280,309.686C280,138.653,418.702,0,589.735,0C589.735,0,589.735,0,589.735,0C589.735,0,744.26,0,744.26,0C744.26,0,744.26,1024,744.26,1024C744.26,1024,589.735,1024,589.735,1024C589.735,1024,589.735,563.696,589.735,563.696C589.735,563.696,589.735,381.235,589.735,381.235C589.735,381.235,589.735,256.989,589.735,256.989C589.735,256.989,590.125,155.258,590.125,155.258C590.125,155.258,590.125,155.258,590.125,155.258C504.56,154.819,434.965,224.023,434.916,309.588C434.916,309.588,434.525,1024,434.525,1024C434.525,1024,434.525,1024,434.525,1024" class="icon-v"/><glyph unicode="&#x0077;" d="M242.474,1.769C242.474,1.769,246.817,1.769,246.817,1.769C246.817,1.769,246.817,0.5,246.817,0.5C246.817,0.5,400.94,0.5,400.94,0.5C400.94,0.5,400.94,0.598,400.94,0.598C400.94,0.598,432.955,0.598,432.955,0.598C432.955,0.598,432.955,1.867,432.955,1.867C432.955,1.867,437.298,1.867,437.298,1.867C464.531,1.867,490.006,9.236,512.017,21.925C534.076,9.187,559.601,1.769,586.931,1.769C586.931,1.769,591.274,1.769,591.274,1.769C591.274,1.769,591.274,0.5,591.274,0.5C591.274,0.5,745.396,0.5,745.396,0.5C745.396,0.5,745.396,0.598,745.396,0.598C745.396,0.598,777.412,0.598,777.412,0.598C777.412,0.598,777.412,1.867,777.412,1.867C777.412,1.867,777.558,1.867,777.558,1.867C777.558,1.867,777.558,1.232,777.558,1.232C777.558,1.232,931.68,1.232,931.68,1.232C931.68,1.232,931.68,1024.5,931.68,1024.5C931.68,1024.5,776.826,1024.5,776.826,1024.5C776.826,1024.5,776.826,154.72,776.826,154.72C776.826,154.72,623.241,154.72,623.241,154.72C623.241,154.72,623.241,154.622,623.241,154.622C623.241,154.622,591.762,154.622,591.762,154.622C591.762,154.622,591.762,1024.402,591.762,1024.402C591.762,1024.402,587.272,1024.402,587.272,1024.402C587.272,1024.402,587.272,1024.5,587.272,1024.5C587.272,1024.5,432.418,1024.5,432.418,1024.5C432.418,1024.5,432.418,154.72,432.418,154.72C432.418,154.72,278.833,154.72,278.833,154.72C278.833,154.72,278.833,154.622,278.833,154.622C278.833,154.622,247.354,154.622,247.354,154.622C247.354,154.622,247.354,1024.402,247.354,1024.402C247.354,1024.402,92.5,1024.402,92.5,1024.402C92.5,1024.402,92.5,151.792,92.5,151.792C92.5,68.972,159.654,1.818,242.474,1.818C242.474,1.818,242.474,1.769,242.474,1.769" class="icon-2"/><glyph unicode="&#x0078;" d="M589.602,1024C589.602,1024,589.602,691.454,589.602,691.454C589.602,663.969,582.035,640.146,566.95,619.985C551.866,599.823,533.559,589.767,512.031,589.767C490.502,589.767,472.195,599.823,457.111,619.985C442.026,640.146,434.459,663.969,434.459,691.454C434.459,691.454,434.459,1024,434.459,1024C434.459,1024,280,1024,280,1024C280,1024,280,639.854,280,639.854C280,607.39,299.576,577.611,319.347,550.468C336.043,527.573,336.043,496.476,319.347,473.532C299.527,446.389,280,416.61,280,384.146C280,384.146,280,0,280,0C280,0,434.459,0,434.459,0C434.459,0,434.459,332.546,434.459,332.546C434.459,360.031,442.026,383.854,457.111,404.015C472.195,424.177,490.502,434.233,512.031,434.233C533.559,434.233,551.866,424.177,566.95,404.015C582.035,383.854,589.602,360.031,589.602,332.546C589.602,332.546,589.602,0,589.602,0C589.602,0,744.061,0,744.061,0C744.061,0,744.061,384.146,744.061,384.146C744.061,416.61,724.485,446.389,704.714,473.532C688.018,496.427,688.018,527.524,704.714,550.468C724.534,577.611,744.061,607.39,744.061,639.854C744.061,639.854,744.061,1024,744.061,1024C744.061,1024,589.602,1024,589.602,1024C589.602,1024,589.602,1024,589.602,1024" class="icon-x"/><glyph unicode="&#x0079;" d="M705.131,549.949C732.304,569.741,744.522,606.932,744.522,639.432C744.522,639.432,744.522,1024,744.522,1024C744.522,1024,589.893,1024,589.893,1024C589.893,1024,589.893,691.089,589.893,691.089C589.893,663.574,582.318,639.725,567.217,619.541C552.115,599.357,533.789,589.29,512.236,589.29C490.684,589.29,472.357,599.357,457.256,619.541C442.155,639.725,434.58,663.574,434.58,691.089C434.58,691.089,434.58,1024,434.58,1024C434.58,1024,280,1024,280,1024C280,1024,280,639.432,280,639.432C280,606.932,289.188,564.659,319.39,549.949C347.638,536.216,384.145,533.039,411.855,523.314C425.832,518.378,435.069,504.987,435.069,490.179C435.069,490.179,435.069,0,435.069,0C435.069,0,589.404,0,589.404,0C589.404,0,589.404,485.781,589.404,485.781C589.404,503.081,601.182,518.378,618.043,522.239C645.117,528.494,680.256,531.915,705.082,549.949C705.082,549.949,705.131,549.949,705.131,549.949" class="icon-y"/><glyph unicode="&#x007a;" d="M744.061,157.242C744.061,157.242,744.061,0,744.061,0C744.061,0,432.116,0,432.116,0C429.87,0,427.674,0.391,425.428,0.537C425.428,0.537,280,0.537,280,0.537C280,0.537,280,385.513,280,385.513C280,403.771,286.151,418.905,302.651,437.651C302.651,437.651,280,437.651,280,437.651C280,437.651,280,592.696,280,592.696C280,592.696,412.003,592.696,412.003,592.696C412.003,592.696,528.433,594.99,528.433,594.99C542.834,598.944,555.625,608.22,566.804,623.06C582.035,643.32,589.651,667.582,589.651,695.896C589.651,695.896,589.651,766.78,589.651,766.78C589.651,766.78,589.26,867.979,589.26,867.979C589.26,867.979,512.079,869.004,512.079,869.004C512.079,869.004,280,869.004,280,869.004C280,869.004,280,1024,280,1024C280,1024,744.061,1024,744.061,1024C744.061,1024,744.061,644.101,744.061,644.101C744.061,626.966,738.593,606.462,721.214,594.99C721.214,594.99,744.061,594.99,744.061,594.99C744.061,594.99,744.061,437.651,744.061,437.651C744.061,437.651,512.031,437.651,512.031,437.651C490.746,437.651,472.488,427.35,457.306,406.798C442.075,386.246,434.459,361.593,434.459,332.888C434.459,332.888,434.459,260.931,434.459,260.931C434.459,260.931,434.801,158.316,434.801,158.316C434.801,158.316,744.061,157.193,744.061,157.193C744.061,157.193,744.061,157.242,744.061,157.242" class="icon-z"/><glyph unicode="&#x0030;" d="M698.827,964.242C668.331,1004.414,632.069,1024.5,589.942,1024.5C589.942,1024.5,434.58,1024.5,434.58,1024.5C392.502,1024.5,356.239,1004.414,325.744,964.242C295.248,924.07,280,875.638,280,818.947C280,818.947,280,205.075,280,205.075C280,149.069,295.199,100.93,325.548,60.758C355.897,20.586,392.257,0.5,434.629,0.5C434.629,0.5,589.991,0.5,589.991,0.5C632.313,0.5,668.673,20.586,699.071,60.758C729.42,100.93,744.619,149.02,744.619,205.075C744.619,205.075,744.619,818.947,744.619,818.947C744.619,875.638,729.371,924.021,698.876,964.242C698.876,964.242,698.827,964.242,698.827,964.242M457.452,839.864C472.699,860.048,490.977,870.116,512.236,870.116C533.495,870.116,551.773,860.048,567.021,839.864C582.269,819.68,589.893,795.538,589.893,767.339C589.893,767.339,589.893,707.57,589.893,707.57C589.893,707.57,434.531,552.208,434.531,552.208C434.531,552.208,434.531,767.339,434.531,767.339C434.531,795.489,442.155,819.68,457.403,839.864C457.403,839.864,457.452,839.864,457.452,839.864M567.265,185.185C552.164,165.001,533.837,154.933,512.285,154.933C490.733,154.933,472.406,165.001,457.305,185.185C442.204,205.368,434.629,229.218,434.629,256.732C434.629,256.732,434.629,283.709,434.629,283.709C434.629,283.709,589.991,439.071,589.991,439.071C589.991,439.071,589.991,256.781,589.991,256.781C589.991,229.266,582.416,205.417,567.314,185.233C567.314,185.233,567.265,185.185,567.265,185.185" class="icon-0"/><glyph unicode="&#x0031;" d="M512.137,1023.231C512.137,1023.231,512.137,1024.5,512.137,1024.5C512.137,1024.5,358,1024.5,358,1024.5C358,1024.5,358,870.363,358,870.363C358,870.363,511.6,870.363,511.6,870.363C511.6,870.363,511.6,0.5,511.6,0.5C511.6,0.5,666.469,0.5,666.469,0.5C666.469,0.5,666.469,873.194,666.469,873.194C666.469,956.071,599.309,1023.231,516.481,1023.231C516.481,1023.231,512.137,1023.231,512.137,1023.231C512.137,1023.231,512.137,1023.231,512.137,1023.231" class="icon-1"/><glyph unicode="&#x0032;" d="M589.617,154.222C589.617,154.222,512.042,154.222,512.042,154.222C490.756,154.222,472.546,164.279,457.314,184.442C442.082,204.605,434.467,228.722,434.467,256.891C434.467,256.891,434.467,460.812,434.467,460.812C434.467,488.298,442.034,512.122,457.119,532.285C472.204,552.447,490.512,562.504,512.042,562.504C512.823,562.504,513.555,562.26,514.336,562.211C514.336,562.211,744.083,562.211,744.083,562.211C744.083,562.211,744.083,819.395,744.083,819.395C743.888,823.643,743.693,827.499,743.497,831.503C743.497,831.503,743.497,953.357,743.497,953.357C743.448,992.316,709.03,1023.854,666.557,1023.854C664.067,1023.854,661.724,1023.414,659.332,1023.17C656.402,1023.463,653.522,1024,650.495,1024C650.495,1024,358.991,1024,358.991,1024C358.014,1024,357.087,1023.756,356.11,1023.756C356.11,1023.756,282.587,1023.756,282.587,1023.756C282.587,1023.756,282.587,957.947,282.587,957.947C282.49,956.433,282.099,955.017,282.099,953.504C282.099,953.504,282.099,953.504,282.099,953.504C282.099,951.99,282.49,950.575,282.587,949.061C282.587,949.061,282.587,868.508,282.587,868.508C282.587,868.508,583.953,868.508,583.953,868.508C586.15,868.508,587.957,868.362,589.665,868.215C589.665,868.215,589.665,788.199,589.665,788.199C589.665,786.93,590.007,785.758,590.056,784.538C589.812,783.073,589.665,781.56,589.665,780.095C589.665,780.095,589.665,717.703,589.665,717.703C519.218,715.946,557.737,716.678,512.09,716.678C512.09,716.678,434.515,716.678,434.515,716.678C392.188,716.678,355.915,696.613,325.549,656.483C295.183,616.353,280,568.314,280,512.366C280,512.366,280,205.337,280,205.337C280,148.706,295.232,100.325,325.696,60.195C356.159,20.065,392.384,0,434.467,0C434.467,0,744.083,0,744.083,0C744.083,0,744.083,154.369,744.083,154.369C744.083,154.369,589.617,154.369,589.617,154.369C589.617,154.369,589.617,154.222,589.617,154.222C589.617,154.222,589.617,154.222,589.617,154.222" class="icon-2 (2)"/><glyph unicode="&#x0033;" d="M566.95,184.336C551.866,164.174,533.559,154.117,512.031,154.117C512.031,154.117,280,154.117,280,154.117C280,154.117,280,0,280,0C280,0,591.945,0,591.945,0C633.245,0.732,668.784,20.699,698.563,60.046C728.879,100.174,744.061,148.211,744.061,204.204C744.061,204.204,744.061,377.849,744.061,377.849C744.061,429.352,731.32,473.922,706.13,511.805C731.32,549.638,744.061,594.014,744.061,645.028C744.061,645.028,744.061,818.673,744.061,818.673C744.061,875.301,728.83,923.631,698.368,963.759C667.905,1003.936,631.683,1024,589.602,1024C589.602,1024,280,1024,280,1024C280,1024,280,869.785,280,869.785C280,869.785,512.031,869.785,512.031,869.785C533.315,869.785,551.573,859.728,566.755,839.567C581.986,819.405,589.602,795.289,589.602,767.121C589.602,767.121,589.602,696.629,589.602,696.629C589.602,669.144,582.035,645.321,566.95,625.159C551.866,604.998,533.559,594.941,512.031,594.941C512.031,594.941,280,594.941,280,594.941C280,594.941,280,429.01,280,429.01C280,429.01,512.031,429.01,512.031,429.01C533.315,429.01,551.573,418.953,566.755,398.792C581.986,378.63,589.602,354.514,589.602,326.346C589.602,326.346,589.602,255.854,589.602,255.854C589.602,228.369,582.035,204.546,566.95,184.384C566.95,184.384,566.95,184.336,566.95,184.336" class="icon-3"/><glyph unicode="&#x0034;" d="M589.712,1024C589.712,1024,589.712,792.444,589.712,792.444C589.712,771.203,579.676,752.983,559.556,737.831C545.574,727.26,529.594,720.439,511.715,717.224C494.176,720.439,478.441,727.162,464.459,737.637C444.338,752.69,434.302,770.96,434.302,792.444C434.302,792.444,434.302,1024,434.302,1024C434.302,1024,280.5,1024,280.5,1024C280.5,1024,280.5,712.693,280.5,712.693C281.231,671.478,301.108,636.011,340.423,606.293C380.469,576.04,428.407,560.888,484.287,560.888C484.287,560.888,538.704,560.888,538.704,560.888C556.535,560.888,573.538,562.399,589.761,565.419C589.761,565.419,589.761,0,589.761,0C589.761,0,743.612,0,743.612,0C743.612,0,743.612,1024,743.612,1024C743.612,1024,589.712,1024,589.712,1024C589.712,1024,589.712,1024,589.712,1024" class="icon-4"/><glyph unicode="&#x0035;" d="M434.459,154.264C434.459,154.264,512.031,154.264,512.031,154.264C533.315,154.264,551.524,164.32,566.755,184.482C581.986,204.644,589.602,228.76,589.602,256.928C589.602,256.928,589.602,460.839,589.602,460.839C589.602,488.323,582.035,512.146,566.95,532.308C551.866,552.47,533.559,562.526,512.031,562.526C511.249,562.526,510.517,562.282,509.736,562.233C509.736,562.233,280,562.233,280,562.233C280,562.233,280,819.405,280,819.405C280.195,823.652,280.391,827.509,280.586,831.512C280.586,831.512,280.586,953.361,280.586,953.361C280.586,992.268,315.002,1023.854,357.523,1023.854C360.012,1023.854,362.355,1023.414,364.748,1023.17C367.677,1023.512,370.557,1024,373.584,1024C373.584,1024,665.025,1024,665.025,1024C666.002,1024,666.929,1023.756,667.905,1023.756C667.905,1023.756,741.474,1023.756,741.474,1023.756C741.474,1023.756,741.474,957.95,741.474,957.95C741.571,956.436,741.962,955.021,741.962,953.507C741.962,953.507,741.962,953.507,741.962,953.507C741.962,951.994,741.571,950.578,741.474,949.065C741.474,949.065,741.474,868.516,741.474,868.516C741.474,868.516,440.122,868.516,440.122,868.516C437.925,868.516,436.119,868.369,434.41,868.223C434.41,868.223,434.41,788.211,434.41,788.211C434.41,786.941,434.069,785.77,434.02,784.549C434.264,783.085,434.41,781.571,434.41,780.107C434.41,780.107,434.41,717.718,434.41,717.718C504.854,715.96,466.337,716.693,511.982,716.693C511.982,716.693,589.553,716.693,589.553,716.693C631.878,716.693,668.15,696.629,698.514,656.5C728.83,616.372,744.012,568.336,744.012,512.342C744.012,512.342,744.012,205.327,744.012,205.327C744.012,148.699,728.781,100.32,698.319,60.192C667.857,20.064,631.634,0,589.553,0C589.553,0,280,0,280,0C280,0,280,154.362,280,154.362C280,154.362,434.459,154.362,434.459,154.362C434.459,154.362,434.459,154.215,434.459,154.215C434.459,154.215,434.459,154.264,434.459,154.264" class="icon-5"/><glyph unicode="&#x0036;" d="M745.405,646.61C745.258,826.875,745.012,830.747,744.816,834.766C744.816,834.766,744.914,868.535,744.914,868.535C745.209,954.305,675.71,1024,589.94,1024C589.94,1024,279.5,1024,279.5,1024C279.5,1024,279.5,873.681,279.5,873.681C279.5,873.681,534.459,871.966,534.459,871.966C562.493,871.966,585.48,849.813,586.509,821.827C586.509,821.827,588.469,769.532,588.469,769.532C588.469,769.532,589.695,622.35,589.695,622.35C590.038,579.268,555.484,544.029,512.452,543.539C512.452,543.539,512.452,543.539,512.452,543.539C512.452,543.539,434.573,543.539,434.573,543.539C392.129,543.539,355.664,523.395,325.179,483.108C294.743,442.82,279.5,394.593,279.5,338.376C279.5,338.376,279.5,206.143,279.5,206.143C279.5,149.289,294.792,100.768,325.375,60.431C355.958,20.144,392.325,0,434.573,0C434.573,0,624.444,0,624.444,0C691.247,0,745.405,54.158,745.405,120.961C745.405,120.961,745.405,646.61,745.405,646.61C745.405,646.61,745.405,646.61,745.405,646.61M590.332,232.707C590.332,189.675,555.484,154.828,512.452,154.828C512.452,154.828,512.452,154.828,512.452,154.828C491.083,154.828,472.753,164.924,457.51,185.166C442.219,205.408,434.573,229.619,434.573,257.899C434.573,257.899,434.573,286.62,434.573,286.62C434.573,314.214,442.17,338.131,457.314,358.373C472.459,378.615,490.838,388.711,512.452,388.711C534.066,388.711,552.446,378.615,567.59,358.373C582.735,338.131,590.332,314.214,590.332,286.62C590.332,286.62,590.332,232.756,590.332,232.756C590.332,232.756,590.332,232.707,590.332,232.707" class="icon-6"/><glyph unicode="&#x0037;" d="M844.71,585.667C844.71,585.667,749.731,585.667,749.731,585.667C749.731,585.667,749.731,834.334,749.731,834.334C749.78,939.09,664.87,1024,560.114,1024C560.114,1024,180,1024,180,1024C180,1024,180,834.09,180,834.09C180,834.09,559.821,834.09,559.821,834.09C559.821,834.09,559.821,585.715,559.821,585.715C559.821,585.715,464.841,585.715,464.841,585.715C464.841,585.715,464.841,395.805,464.841,395.805C464.841,395.805,559.821,395.805,559.821,395.805C559.821,395.805,559.821,0,559.821,0C559.821,0,749.731,0,749.731,0C749.731,0,749.731,395.805,749.731,395.805C749.731,395.805,844.71,395.805,844.71,395.805C844.71,395.805,844.71,585.715,844.71,585.715C844.71,585.715,844.71,585.667,844.71,585.667" class="icon-7"/><glyph unicode="&#x0038;" d="M697.188,547.259C727.223,587.015,742.265,634.607,742.265,690.083C742.265,690.083,742.265,820.574,742.265,820.574C742.265,876.678,727.175,924.56,696.995,964.365C666.814,1004.122,630.927,1024,589.236,1024C589.236,1024,435.481,1024,435.481,1024C393.838,1024,357.951,1004.122,327.77,964.365C297.59,924.608,282.5,876.678,282.5,820.574C282.5,820.574,282.5,690.083,282.5,690.083C282.5,634.656,297.542,587.015,327.577,547.259C338.459,532.846,350.115,521.093,362.545,511.903C350.212,502.762,338.604,491.058,327.77,476.741C297.59,436.985,282.5,389.054,282.5,332.95C282.5,332.95,282.5,202.459,282.5,202.459C282.5,147.032,297.542,99.392,327.577,59.635C357.612,19.878,393.596,0,435.529,0C435.529,0,589.284,0,589.284,0C631.169,0,667.153,19.878,697.236,59.635C727.272,99.392,742.313,146.984,742.313,202.459C742.313,202.459,742.313,332.95,742.313,332.95C742.313,389.054,727.223,436.936,697.043,476.741C686.209,491.058,674.601,502.714,662.268,511.903C674.698,521.093,686.354,532.846,697.236,547.259C697.236,547.259,697.188,547.259,697.188,547.259M435.529,769.499C435.529,797.358,443.074,821.299,458.164,841.274C473.255,861.249,491.343,871.213,512.382,871.213C533.422,871.213,551.51,861.249,566.601,841.274C581.691,821.299,589.236,797.406,589.236,769.499C589.236,769.499,589.236,741.157,589.236,741.157C589.236,713.927,581.739,690.325,566.794,670.35C551.849,650.374,533.712,640.411,512.382,640.411C491.053,640.411,472.916,650.374,457.971,670.35C443.026,690.325,435.529,713.927,435.529,741.157C435.529,741.157,435.529,769.499,435.529,769.499C435.529,769.499,435.529,769.499,435.529,769.499M589.236,253.63C589.236,226.4,581.739,202.798,566.794,182.823C551.849,162.848,533.712,152.884,512.382,152.884C491.053,152.884,472.916,162.848,457.971,182.823C443.026,202.798,435.529,226.4,435.529,253.63C435.529,253.63,435.529,281.972,435.529,281.972C435.529,309.831,443.074,333.772,458.164,353.747C473.255,373.722,491.343,383.686,512.382,383.686C533.422,383.686,551.51,373.722,566.601,353.747C581.691,333.772,589.236,309.879,589.236,281.972C589.236,281.972,589.236,253.63,589.236,253.63C589.236,253.63,589.236,253.63,589.236,253.63" class="icon-8"/><glyph unicode="&#x0039;" d="M745.405,903.039C745.405,969.842,691.247,1024,624.395,1024C624.395,1024,434.573,1024,434.573,1024C392.325,1024,355.958,1003.856,325.375,963.569C294.792,923.281,279.5,874.711,279.5,817.857C279.5,817.857,279.5,685.624,279.5,685.624C279.5,629.456,294.743,581.18,325.179,540.892C355.615,500.605,392.08,480.461,434.573,480.461C434.573,480.461,512.452,480.461,512.452,480.461C555.534,479.971,590.038,444.732,589.695,401.65C589.695,401.65,588.469,254.468,588.469,254.468C588.469,254.468,586.509,202.173,586.509,202.173C585.431,174.187,562.444,152.034,534.459,152.034C534.459,152.034,279.5,150.319,279.5,150.319C279.5,150.319,279.5,0,279.5,0C279.5,0,589.891,0,589.891,0C675.661,0,745.16,69.695,744.865,155.465C744.865,155.465,744.767,189.234,744.767,189.234C744.963,193.253,745.209,197.125,745.356,377.39C745.356,377.39,745.356,903.039,745.356,903.039C745.356,903.039,745.405,903.039,745.405,903.039M590.332,737.429C590.332,709.835,582.735,685.918,567.59,665.676C552.446,645.434,534.066,635.338,512.452,635.338C490.838,635.338,472.459,645.434,457.314,665.676C442.17,685.918,434.573,709.835,434.573,737.429C434.573,737.429,434.573,766.15,434.573,766.15C434.573,794.381,442.219,818.641,457.51,838.883C472.802,859.125,491.132,869.221,512.452,869.221C512.452,869.221,512.452,869.221,512.452,869.221C555.484,869.221,590.332,834.374,590.332,791.342C590.332,791.342,590.332,737.478,590.332,737.478C590.332,737.478,590.332,737.429,590.332,737.429" class="icon-9"/><glyph unicode="&#x002d;" d="C0,1018.438,0,6,0,6C0,6,1024,6,1024,6C1024,6,1024,1018.438,1024,1018.438C1024,1018.438,0,1018.438,0,1018.438" class="icon-*"/></font>
</defs>
</svg>
