<svg width="15" height="16" viewBox="0 0 15 16" fill="none" xmlns="http://www.w3.org/2000/svg">
<rect y="0.686523" width="15" height="15" rx="2" fill="black"/>
<path d="M5.22504 3.08337H9.77504C11.5084 3.08337 12.9167 4.49171 12.9167 6.22504V10.775C12.9167 11.6083 12.5857 12.4074 11.9965 12.9965C11.4074 13.5857 10.6083 13.9167 9.77504 13.9167H5.22504C3.49171 13.9167 2.08337 12.5084 2.08337 10.775V6.22504C2.08337 5.39182 2.41437 4.59272 3.00355 4.00355C3.59272 3.41437 4.39182 3.08337 5.22504 3.08337ZM5.11671 4.16671C4.59954 4.16671 4.10355 4.37215 3.73785 4.73785C3.37215 5.10355 3.16671 5.59954 3.16671 6.11671V10.8834C3.16671 11.9613 4.03879 12.8334 5.11671 12.8334H9.88337C10.4005 12.8334 10.8965 12.6279 11.2622 12.2622C11.6279 11.8965 11.8334 11.4005 11.8334 10.8834V6.11671C11.8334 5.03879 10.9613 4.16671 9.88337 4.16671H5.11671ZM10.3438 4.97921C10.5234 4.97921 10.6956 5.05054 10.8226 5.17752C10.9495 5.3045 11.0209 5.47672 11.0209 5.65629C11.0209 5.83586 10.9495 6.00808 10.8226 6.13506C10.6956 6.26204 10.5234 6.33337 10.3438 6.33337C10.1642 6.33337 9.992 6.26204 9.86502 6.13506C9.73804 6.00808 9.66671 5.83586 9.66671 5.65629C9.66671 5.47672 9.73804 5.3045 9.86502 5.17752C9.992 5.05054 10.1642 4.97921 10.3438 4.97921ZM7.50004 5.79171C8.21834 5.79171 8.90721 6.07705 9.41512 6.58496C9.92303 7.09287 10.2084 7.78175 10.2084 8.50004C10.2084 9.21834 9.92303 9.90721 9.41512 10.4151C8.90721 10.923 8.21834 11.2084 7.50004 11.2084C6.78175 11.2084 6.09287 10.923 5.58496 10.4151C5.07705 9.90721 4.79171 9.21834 4.79171 8.50004C4.79171 7.78175 5.07705 7.09287 5.58496 6.58496C6.09287 6.07705 6.78175 5.79171 7.50004 5.79171ZM7.50004 6.87504C7.06906 6.87504 6.65574 7.04625 6.35099 7.35099C6.04625 7.65574 5.87504 8.06906 5.87504 8.50004C5.87504 8.93102 6.04625 9.34434 6.35099 9.64909C6.65574 9.95384 7.06906 10.125 7.50004 10.125C7.93102 10.125 8.34434 9.95384 8.64909 9.64909C8.95384 9.34434 9.12504 8.93102 9.12504 8.50004C9.12504 8.06906 8.95384 7.65574 8.64909 7.35099C8.34434 7.04625 7.93102 6.87504 7.50004 6.87504Z" fill="white"/>
</svg>
