<svg width="266" height="32" viewBox="0 0 266 32" fill="none" xmlns="http://www.w3.org/2000/svg">
<g clip-path="url(#clip0_141_76)">
<path d="M55.1011 4.94501V0.278809H59.7887V4.94501H55.1011ZM55.1011 31.2284V7.1917H59.7887V31.2284H55.1011Z" fill="black"/>
<path d="M35.2222 0.271606V31.2356H44.6408C45.9212 31.2356 47.0208 30.6307 47.9467 29.4138C48.8727 28.1968 49.3356 26.735 49.3356 25.0212V15.7248C49.3356 14.0326 48.8727 12.578 47.9539 11.361C47.0352 10.1441 45.9284 9.5392 44.6408 9.5392H42.2825C40.8936 9.5392 42.0655 9.5608 39.9242 9.5104V7.62375C39.9242 7.58055 39.9242 7.53734 39.9098 7.48694C39.9098 7.45093 39.9242 7.41493 39.9242 7.37892V0.271606M39.917 17.2874C39.917 16.4521 40.1485 15.732 40.6042 15.1271C41.06 14.515 41.617 14.2126 42.2753 14.2126C42.9336 14.2126 43.4834 14.515 43.9463 15.1271C44.4093 15.7392 44.6336 16.4593 44.6336 17.2874V23.4586C44.6336 24.3083 44.4021 25.0428 43.9391 25.6477C43.4761 26.2598 42.9191 26.5622 42.2753 26.5622H39.917V17.2802V17.2874Z" fill="black"/>
<path d="M14.1134 6.45C14.1134 6.32038 14.0989 6.20517 14.0917 6.08275V2.38868C14.0917 1.21493 13.0427 0.257202 11.7551 0.257202C11.6828 0.257202 11.6104 0.271604 11.5381 0.278805C11.4513 0.271604 11.3645 0.257202 11.2704 0.257202H2.40158C2.40158 0.257202 2.34371 0.257202 2.31477 0.264403H0.0794807V2.25906C0.0794807 2.30227 0.0650128 2.34547 0.0650128 2.39588C0.0650128 2.43908 0.0794807 2.48229 0.0794807 2.5327V4.97381H9.24491C9.31002 4.97381 9.36789 4.97381 9.41853 4.98101V7.40052C9.41853 7.43653 9.42576 7.47253 9.43299 7.50854C9.43299 7.55174 9.41853 7.59495 9.41853 7.64536V9.532C7.27727 9.58241 8.44917 9.5608 7.06025 9.5608H4.70198C3.41434 9.5608 2.31477 10.1657 1.38883 11.3826C0.462881 12.5996 0.00714111 14.0542 0.00714111 15.7464V25.0428C0.00714111 26.7566 0.470115 28.2184 1.39606 29.4354C2.32201 30.6523 3.42157 31.2572 4.70198 31.2572H14.1206V6.45H14.1134ZM9.41853 26.5838H7.06025C6.41643 26.5838 5.85942 26.2814 5.39644 25.6693C4.93347 25.0572 4.70198 24.3299 4.70198 23.4802V17.309C4.70198 16.4737 4.93347 15.7536 5.38921 15.1487C5.84495 14.5366 6.40196 14.2342 7.06025 14.2342C7.71854 14.2342 8.26832 14.5366 8.7313 15.1487C9.19427 15.7608 9.41853 16.4809 9.41853 17.309V26.591V26.5838Z" fill="black"/>
<path d="M90.1279 0.286005V0.25H85.4403V4.9162H90.1134V31.25H94.8228V4.82979C94.8228 2.32387 92.7828 0.286005 90.2581 0.286005H90.1279Z" fill="#E81F64"/>
<path d="M74.9728 26.5838H72.6145C71.9707 26.5838 71.4137 26.2814 70.9507 25.6693C70.4877 25.0572 70.2562 24.3299 70.2562 23.4802V17.309C70.2562 16.4737 70.4877 15.7536 70.9435 15.1487C71.3992 14.5366 71.9562 14.2342 72.6145 14.2342C72.6362 14.2342 72.6579 14.2414 72.6869 14.2414H79.6749V6.4572C79.6749 6.32758 79.6604 6.21237 79.6532 6.08995V2.38868C79.6532 1.20772 78.6042 0.257202 77.3166 0.257202C77.2442 0.257202 77.1719 0.271604 77.0996 0.278805C77.0128 0.271604 76.926 0.257202 76.8319 0.257202H67.9703C67.9703 0.257202 67.9124 0.257202 67.8835 0.264403H65.6482V2.25906C65.6482 2.30227 65.6337 2.34547 65.6337 2.39588C65.6337 2.43908 65.6482 2.48229 65.6482 2.5327V4.97381H74.8136C74.8787 4.97381 74.9366 4.97381 74.9873 4.98101V7.40052C74.9873 7.43653 74.9945 7.47253 75.0017 7.50854C75.0017 7.55174 74.9873 7.59495 74.9873 7.64536V9.532C72.846 9.58241 74.0179 9.5608 72.629 9.5608H70.2707C68.9831 9.5608 67.8835 10.1657 66.9576 11.3826C66.0316 12.5996 65.5759 14.0542 65.5759 15.7464V25.0428C65.5759 26.7566 66.0388 28.2184 66.9648 29.4354C67.8907 30.6523 68.9903 31.2572 70.2707 31.2572H79.6893V26.5838H74.9945H74.9728Z" fill="#E81F64"/>
<path d="M120.467 4.94501V0.278809H125.155V4.94501H120.467ZM120.467 31.2284V7.1917H125.155V31.2284H120.467Z" fill="black"/>
<path d="M150.799 4.93781V0.271606H155.501V4.93781H150.799ZM150.799 31.2356V7.1989H155.501V31.2356H150.799Z" fill="black"/>
<path d="M165.954 0.271606H161.267V4.95221H165.954V24.3875C165.954 26.267 166.41 27.8728 167.329 29.2193C168.248 30.5659 169.347 31.2356 170.642 31.2356H175.525V26.519H172.226C171.799 26.519 171.553 26.7062 171.069 26.0941C170.779 25.7341 170.642 25.4821 170.642 24.3803V4.94501H175.308V0.271606H170.642" fill="black"/>
<path d="M110 0.271606V7.37892C110 7.41493 110.007 7.45093 110.014 7.48694C110.014 7.53014 110 7.57335 110 7.62375V9.5104C107.858 9.5608 109.03 9.5392 107.641 9.5392H105.283C103.995 9.5392 102.896 10.1441 101.97 11.361C101.044 12.578 100.588 14.0326 100.588 15.7248V25.0212C100.588 26.735 101.051 28.1968 101.977 29.4138C102.903 30.6307 104.003 31.2356 105.283 31.2356H114.702V0.271606M110 26.5694H107.641C106.998 26.5694 106.441 26.267 105.978 25.6549C105.515 25.0428 105.283 24.3155 105.283 23.4658V17.2946C105.283 16.4593 105.515 15.7392 105.97 15.1343C106.426 14.5222 106.983 14.2198 107.641 14.2198C108.3 14.2198 108.849 14.5222 109.312 15.1343C109.775 15.7464 110 16.4665 110 17.2946V26.5766V26.5694Z" fill="black"/>
<path d="M145.034 0.25H135.615C134.335 0.25 133.235 0.854878 132.309 2.07184C131.383 3.28879 130.92 4.75058 130.92 6.4644V15.7608C130.92 17.453 131.383 18.9076 132.302 20.1246C133.221 21.3415 134.327 21.9464 135.615 21.9464H137.973C139.362 21.9464 138.19 21.9248 140.332 21.9752V23.8618C140.332 23.9051 140.332 23.9483 140.346 23.9987C140.346 24.0347 140.332 24.0707 140.332 24.1067V26.5262C140.281 26.5262 140.223 26.5334 140.158 26.5334H130.993V28.9745C130.993 29.0177 130.978 29.0609 130.978 29.1113C130.978 29.1545 130.993 29.1977 130.993 29.2481V31.2428H133.228C133.228 31.2428 133.286 31.25 133.315 31.25H142.176C142.27 31.25 142.357 31.2356 142.444 31.2284C142.516 31.2284 142.589 31.25 142.661 31.25C143.956 31.25 144.998 30.2923 144.998 29.1185V25.4317C144.998 25.3092 145.012 25.194 145.019 25.0644V0.25H145.034ZM140.339 14.1982C140.339 15.0335 140.107 15.7536 139.652 16.3585C139.196 16.9706 138.639 17.273 137.981 17.273C137.322 17.273 136.773 16.9706 136.31 16.3585C135.847 15.7464 135.622 15.0263 135.622 14.1982V8.027C135.622 7.17729 135.854 6.4428 136.317 5.83792C136.78 5.22584 137.337 4.9234 137.981 4.9234H140.339V14.2054V14.1982Z" fill="black"/>
<path d="M195.411 6.45C195.411 6.32038 195.397 6.20517 195.389 6.08275V2.38868C195.389 1.20772 194.34 0.257202 193.053 0.257202C192.98 0.257202 192.908 0.271604 192.836 0.278805C192.749 0.271604 192.662 0.257202 192.568 0.257202H183.706C183.706 0.257202 183.649 0.257202 183.62 0.264403H181.384V2.25906C181.384 2.30227 181.37 2.34547 181.37 2.39588C181.37 2.43908 181.384 2.48229 181.384 2.5327V4.97381H190.55C190.615 4.97381 190.673 4.97381 190.723 4.98101V7.40052C190.723 7.43653 190.731 7.47253 190.738 7.50854C190.738 7.55174 190.723 7.59495 190.723 7.64536V9.532C188.582 9.58241 189.754 9.5608 188.365 9.5608H186.007C184.719 9.5608 183.62 10.1657 182.694 11.3826C181.768 12.5996 181.312 14.0542 181.312 15.7464V25.0428C181.312 26.7566 181.775 28.2184 182.701 29.4354C183.627 30.6523 184.726 31.2572 186.007 31.2572H195.425V6.45H195.411ZM190.709 26.5838H188.351C187.707 26.5838 187.15 26.2814 186.687 25.6693C186.224 25.0572 185.992 24.3299 185.992 23.4802V17.309C185.992 16.4737 186.224 15.7536 186.68 15.1487C187.135 14.5366 187.692 14.2342 188.351 14.2342C189.009 14.2342 189.559 14.5366 190.022 15.1487C190.485 15.7608 190.709 16.4809 190.709 17.309V26.591V26.5838Z" fill="black"/>
<path d="M201.176 0.300415V24.3587C201.176 26.2382 201.632 27.844 202.551 29.1905C203.47 30.5371 204.569 31.2068 205.864 31.2068H210.747V26.4902H207.448C207.022 26.4902 206.776 26.6774 206.291 26.0653C206.002 25.7053 205.864 25.4533 205.864 24.3515V0.300415" fill="black"/>
<path d="M236.399 31.2068V7.1485C236.399 5.26906 236.854 3.66325 237.773 2.31668C238.692 0.970101 239.791 0.300415 241.086 0.300415H245.969V5.01702H242.67C242.244 5.01702 241.998 4.8298 241.513 5.44188C241.224 5.80193 241.086 6.05396 241.086 7.1557V31.214" fill="#FEC111"/>
<path d="M256.422 0.271606H251.735V4.95221H256.422V24.3875C256.422 26.267 256.878 27.8728 257.797 29.2193C258.715 30.5659 259.815 31.2356 261.11 31.2356H265.993V26.519H262.694C262.267 26.519 262.021 26.7062 261.537 26.0941C261.247 25.7341 261.11 25.4821 261.11 24.3803V4.94501H265.776V0.271606H261.11" fill="#FEC111"/>
<path d="M230.626 6.45C230.626 6.32038 230.611 6.20517 230.604 6.08275V2.38868C230.604 1.20772 229.555 0.257202 228.268 0.257202C228.195 0.257202 228.123 0.271604 228.051 0.278805C227.964 0.271604 227.877 0.257202 227.783 0.257202H218.921C218.921 0.257202 218.864 0.257202 218.835 0.264403H216.599V2.25906C216.599 2.30227 216.585 2.34547 216.585 2.39588C216.585 2.43908 216.599 2.48229 216.599 2.5327V4.97381H225.765C225.83 4.97381 225.888 4.97381 225.938 4.98101V7.40052C225.938 7.43653 225.946 7.47253 225.953 7.50854C225.953 7.55174 225.938 7.59495 225.938 7.64536V9.532C223.797 9.58241 224.969 9.5608 223.58 9.5608H221.222C219.934 9.5608 218.835 10.1657 217.909 11.3826C216.983 12.5996 216.527 14.0542 216.527 15.7464V25.0428C216.527 26.7566 216.99 28.2184 217.916 29.4354C218.842 30.6523 219.941 31.2572 221.222 31.2572H230.64V6.45H230.626ZM225.931 26.5838H223.573C222.929 26.5838 222.372 26.2814 221.909 25.6693C221.446 25.0572 221.215 24.3299 221.215 23.4802V17.309C221.215 16.4737 221.446 15.7536 221.902 15.1487C222.358 14.5366 222.915 14.2342 223.573 14.2342C224.231 14.2342 224.781 14.5366 225.244 15.1487C225.707 15.7608 225.931 16.4809 225.931 17.309V26.591V26.5838Z" fill="#FEC111"/>
<path d="M19.8789 0.300415V24.3587C19.8789 26.2382 20.3346 27.844 21.2534 29.1905C22.1721 30.5371 23.2716 31.2068 24.5665 31.2068H29.4494V26.4902H26.1508C25.7239 26.4902 25.478 26.6774 24.9933 26.0653C24.704 25.7053 24.5665 25.4533 24.5665 24.3515V0.300415" fill="black"/>
</g>
<defs>
<clipPath id="clip0_141_76">
<rect width="266" height="31" fill="white" transform="translate(0 0.25)"/>
</clipPath>
</defs>
</svg>
